<mxfile host="app.diagrams.net" modified="2021-07-27T14:50:53.922Z" agent="5.0 (Macintosh; Intel Mac OS X 10_15_7) AppleWebKit/605.1.15 (KHTML, like Gecko) Version/14.1 Safari/605.1.15" etag="evUZKpJJfPn-mZRPoB88" version="14.9.2" type="github">
  <diagram id="k4gOYyd2U3R1SAB1BDuD" name="Page-1">
    <mxGraphModel dx="988" dy="729" grid="1" gridSize="10" guides="1" tooltips="1" connect="1" arrows="1" fold="1" page="1" pageScale="1" pageWidth="827" pageHeight="1169" math="0" shadow="0">
      <root>
        <mxCell id="0" />
        <mxCell id="1" parent="0" />
        <mxCell id="8EeJW148Nr816ac2WRvk-2" value="" style="group" vertex="1" connectable="0" parent="1">
          <mxGeometry x="41" y="270" width="170" height="180" as="geometry" />
        </mxCell>
        <mxCell id="8EeJW148Nr816ac2WRvk-3" value="" style="rounded=0;whiteSpace=wrap;html=1;verticalAlign=bottom;strokeColor=none;" vertex="1" parent="8EeJW148Nr816ac2WRvk-2">
          <mxGeometry width="170" height="180" as="geometry" />
        </mxCell>
        <mxCell id="8EeJW148Nr816ac2WRvk-4" value="" style="rounded=0;whiteSpace=wrap;html=1;" vertex="1" parent="8EeJW148Nr816ac2WRvk-2">
          <mxGeometry x="60" y="45" width="80" height="120" as="geometry" />
        </mxCell>
        <mxCell id="8EeJW148Nr816ac2WRvk-5" value="" style="rounded=0;whiteSpace=wrap;html=1;" vertex="1" parent="8EeJW148Nr816ac2WRvk-2">
          <mxGeometry x="50" y="35" width="80" height="120" as="geometry" />
        </mxCell>
        <mxCell id="8EeJW148Nr816ac2WRvk-6" value="&lt;font style=&quot;font-size: 12px&quot;&gt;Neural&lt;br&gt;Activity&lt;br&gt;&lt;/font&gt;&lt;br&gt;&lt;font style=&quot;font-size: 10px&quot;&gt;spikes encoded as binary events&lt;/font&gt;" style="rounded=0;whiteSpace=wrap;html=1;spacingTop=2;spacingLeft=2;spacingBottom=2;spacingRight=2;spacing=8;" vertex="1" parent="8EeJW148Nr816ac2WRvk-2">
          <mxGeometry x="40" y="25" width="80" height="120" as="geometry" />
        </mxCell>
        <mxCell id="8EeJW148Nr816ac2WRvk-7" value="time" style="endArrow=classic;html=1;labelPosition=center;verticalLabelPosition=top;align=center;verticalAlign=bottom;" edge="1" parent="8EeJW148Nr816ac2WRvk-2">
          <mxGeometry width="50" height="50" relative="1" as="geometry">
            <mxPoint x="40" y="15" as="sourcePoint" />
            <mxPoint x="90" y="15" as="targetPoint" />
          </mxGeometry>
        </mxCell>
        <mxCell id="8EeJW148Nr816ac2WRvk-8" value="neurons" style="endArrow=classic;html=1;horizontal=0;labelPosition=center;verticalLabelPosition=top;align=center;verticalAlign=bottom;" edge="1" parent="8EeJW148Nr816ac2WRvk-2">
          <mxGeometry y="-10" width="50" height="50" relative="1" as="geometry">
            <mxPoint x="30" y="25" as="sourcePoint" />
            <mxPoint x="30" y="75" as="targetPoint" />
            <mxPoint as="offset" />
          </mxGeometry>
        </mxCell>
        <mxCell id="8EeJW148Nr816ac2WRvk-9" value="trials" style="endArrow=classic;html=1;horizontal=1;labelPosition=center;verticalLabelPosition=top;align=center;verticalAlign=bottom;" edge="1" parent="8EeJW148Nr816ac2WRvk-2">
          <mxGeometry x="0.25" y="7" width="50" height="50" relative="1" as="geometry">
            <mxPoint x="130" y="15" as="sourcePoint" />
            <mxPoint x="160" y="45" as="targetPoint" />
            <mxPoint as="offset" />
          </mxGeometry>
        </mxCell>
        <mxCell id="8EeJW148Nr816ac2WRvk-10" value="" style="group" vertex="1" connectable="0" parent="1">
          <mxGeometry x="271" y="300" width="100" height="120" as="geometry" />
        </mxCell>
        <mxCell id="8EeJW148Nr816ac2WRvk-11" value="Encoder RNN" style="rounded=0;whiteSpace=wrap;html=1;verticalAlign=bottom;strokeColor=none;" vertex="1" parent="8EeJW148Nr816ac2WRvk-10">
          <mxGeometry width="100" height="120" as="geometry" />
        </mxCell>
        <mxCell id="8EeJW148Nr816ac2WRvk-12" value="" style="ellipse;whiteSpace=wrap;html=1;aspect=fixed;" vertex="1" parent="8EeJW148Nr816ac2WRvk-10">
          <mxGeometry x="10" y="40" width="10" height="10" as="geometry" />
        </mxCell>
        <mxCell id="8EeJW148Nr816ac2WRvk-13" style="edgeStyle=orthogonalEdgeStyle;curved=1;rounded=0;orthogonalLoop=1;jettySize=auto;html=1;entryX=0.5;entryY=0;entryDx=0;entryDy=0;startSize=3;endSize=3;verticalAlign=bottom;" edge="1" parent="8EeJW148Nr816ac2WRvk-10" source="8EeJW148Nr816ac2WRvk-14" target="8EeJW148Nr816ac2WRvk-12">
          <mxGeometry x="10" y="10" as="geometry">
            <Array as="points">
              <mxPoint x="15" y="25" />
            </Array>
          </mxGeometry>
        </mxCell>
        <mxCell id="8EeJW148Nr816ac2WRvk-14" value="" style="ellipse;whiteSpace=wrap;html=1;aspect=fixed;" vertex="1" parent="8EeJW148Nr816ac2WRvk-10">
          <mxGeometry x="30" y="20" width="10" height="10" as="geometry" />
        </mxCell>
        <mxCell id="8EeJW148Nr816ac2WRvk-15" style="edgeStyle=orthogonalEdgeStyle;curved=1;rounded=0;orthogonalLoop=1;jettySize=auto;html=1;entryX=1;entryY=0.5;entryDx=0;entryDy=0;startSize=3;endSize=3;verticalAlign=bottom;" edge="1" parent="8EeJW148Nr816ac2WRvk-10" source="8EeJW148Nr816ac2WRvk-16" target="8EeJW148Nr816ac2WRvk-14">
          <mxGeometry x="10" y="10" as="geometry">
            <Array as="points">
              <mxPoint x="45" y="40" />
              <mxPoint x="60" y="40" />
              <mxPoint x="60" y="25" />
            </Array>
          </mxGeometry>
        </mxCell>
        <mxCell id="8EeJW148Nr816ac2WRvk-16" value="" style="ellipse;whiteSpace=wrap;html=1;aspect=fixed;" vertex="1" parent="8EeJW148Nr816ac2WRvk-10">
          <mxGeometry x="40" y="50" width="10" height="10" as="geometry" />
        </mxCell>
        <mxCell id="8EeJW148Nr816ac2WRvk-17" style="edgeStyle=orthogonalEdgeStyle;curved=1;rounded=0;orthogonalLoop=1;jettySize=auto;html=1;entryX=0;entryY=0.5;entryDx=0;entryDy=0;startSize=3;endSize=3;verticalAlign=bottom;" edge="1" parent="8EeJW148Nr816ac2WRvk-10" source="8EeJW148Nr816ac2WRvk-12" target="8EeJW148Nr816ac2WRvk-16">
          <mxGeometry x="10" y="10" as="geometry">
            <Array as="points">
              <mxPoint x="15" y="55" />
            </Array>
          </mxGeometry>
        </mxCell>
        <mxCell id="8EeJW148Nr816ac2WRvk-18" value="" style="ellipse;whiteSpace=wrap;html=1;aspect=fixed;" vertex="1" parent="8EeJW148Nr816ac2WRvk-10">
          <mxGeometry x="30" y="80" width="10" height="10" as="geometry" />
        </mxCell>
        <mxCell id="8EeJW148Nr816ac2WRvk-19" style="edgeStyle=orthogonalEdgeStyle;curved=1;rounded=0;orthogonalLoop=1;jettySize=auto;html=1;entryX=0;entryY=0.5;entryDx=0;entryDy=0;startSize=3;endSize=3;verticalAlign=bottom;" edge="1" parent="8EeJW148Nr816ac2WRvk-10" source="8EeJW148Nr816ac2WRvk-12" target="8EeJW148Nr816ac2WRvk-18">
          <mxGeometry x="10" y="10" as="geometry">
            <Array as="points">
              <mxPoint x="10" y="85" />
            </Array>
          </mxGeometry>
        </mxCell>
        <mxCell id="8EeJW148Nr816ac2WRvk-20" style="edgeStyle=orthogonalEdgeStyle;curved=1;rounded=0;orthogonalLoop=1;jettySize=auto;html=1;entryX=0.5;entryY=0;entryDx=0;entryDy=0;startSize=3;endSize=3;verticalAlign=bottom;" edge="1" parent="8EeJW148Nr816ac2WRvk-10" source="8EeJW148Nr816ac2WRvk-16" target="8EeJW148Nr816ac2WRvk-18">
          <mxGeometry x="10" y="10" as="geometry">
            <Array as="points">
              <mxPoint x="35" y="55" />
            </Array>
          </mxGeometry>
        </mxCell>
        <mxCell id="8EeJW148Nr816ac2WRvk-21" style="edgeStyle=orthogonalEdgeStyle;curved=1;rounded=0;orthogonalLoop=1;jettySize=auto;html=1;entryX=1;entryY=0.5;entryDx=0;entryDy=0;startSize=3;endSize=3;verticalAlign=bottom;" edge="1" parent="8EeJW148Nr816ac2WRvk-10" source="8EeJW148Nr816ac2WRvk-23" target="8EeJW148Nr816ac2WRvk-16">
          <mxGeometry x="10" y="10" as="geometry">
            <Array as="points">
              <mxPoint x="75" y="55" />
            </Array>
          </mxGeometry>
        </mxCell>
        <mxCell id="8EeJW148Nr816ac2WRvk-22" style="edgeStyle=orthogonalEdgeStyle;curved=1;rounded=0;orthogonalLoop=1;jettySize=auto;html=1;entryX=0.5;entryY=0;entryDx=0;entryDy=0;startSize=3;endSize=3;verticalAlign=bottom;" edge="1" parent="8EeJW148Nr816ac2WRvk-10" source="8EeJW148Nr816ac2WRvk-23" target="8EeJW148Nr816ac2WRvk-14">
          <mxGeometry x="10" y="10" as="geometry">
            <Array as="points">
              <mxPoint x="75" y="10" />
              <mxPoint x="45" y="10" />
            </Array>
          </mxGeometry>
        </mxCell>
        <mxCell id="8EeJW148Nr816ac2WRvk-23" value="" style="ellipse;whiteSpace=wrap;html=1;aspect=fixed;" vertex="1" parent="8EeJW148Nr816ac2WRvk-10">
          <mxGeometry x="70" y="40" width="10" height="10" as="geometry" />
        </mxCell>
        <mxCell id="8EeJW148Nr816ac2WRvk-24" style="edgeStyle=orthogonalEdgeStyle;curved=1;rounded=0;orthogonalLoop=1;jettySize=auto;html=1;entryX=1;entryY=0.5;entryDx=0;entryDy=0;startSize=3;endSize=3;verticalAlign=bottom;" edge="1" parent="8EeJW148Nr816ac2WRvk-10" source="8EeJW148Nr816ac2WRvk-25" target="8EeJW148Nr816ac2WRvk-23">
          <mxGeometry x="10" y="10" as="geometry">
            <Array as="points">
              <mxPoint x="75" y="60" />
              <mxPoint x="90" y="60" />
              <mxPoint x="90" y="45" />
            </Array>
          </mxGeometry>
        </mxCell>
        <mxCell id="8EeJW148Nr816ac2WRvk-25" value="" style="ellipse;whiteSpace=wrap;html=1;aspect=fixed;" vertex="1" parent="8EeJW148Nr816ac2WRvk-10">
          <mxGeometry x="70" y="70" width="10" height="10" as="geometry" />
        </mxCell>
        <mxCell id="8EeJW148Nr816ac2WRvk-26" style="edgeStyle=orthogonalEdgeStyle;rounded=0;orthogonalLoop=1;jettySize=auto;html=1;entryX=0;entryY=0.5;entryDx=0;entryDy=0;verticalAlign=bottom;curved=1;startSize=3;endSize=3;" edge="1" parent="8EeJW148Nr816ac2WRvk-10" source="8EeJW148Nr816ac2WRvk-18" target="8EeJW148Nr816ac2WRvk-25">
          <mxGeometry x="10" y="10" as="geometry">
            <Array as="points">
              <mxPoint x="25" y="90" />
              <mxPoint x="50" y="90" />
              <mxPoint x="50" y="75" />
            </Array>
          </mxGeometry>
        </mxCell>
        <mxCell id="8EeJW148Nr816ac2WRvk-27" style="edgeStyle=orthogonalEdgeStyle;rounded=0;orthogonalLoop=1;jettySize=auto;html=1;startSize=3;endSize=3;verticalAlign=bottom;targetPerimeterSpacing=5;sourcePerimeterSpacing=5;" edge="1" parent="1" source="8EeJW148Nr816ac2WRvk-3" target="8EeJW148Nr816ac2WRvk-11">
          <mxGeometry relative="1" as="geometry">
            <mxPoint x="270" y="360" as="targetPoint" />
          </mxGeometry>
        </mxCell>
        <mxCell id="8EeJW148Nr816ac2WRvk-37" value="" style="group" vertex="1" connectable="0" parent="1">
          <mxGeometry x="441" y="270" width="140" height="180" as="geometry" />
        </mxCell>
        <mxCell id="8EeJW148Nr816ac2WRvk-38" value="Initial Condition Dist." style="rounded=0;whiteSpace=wrap;html=1;verticalAlign=bottom;strokeColor=none;" vertex="1" parent="8EeJW148Nr816ac2WRvk-37">
          <mxGeometry width="140" height="180" as="geometry" />
        </mxCell>
        <mxCell id="8EeJW148Nr816ac2WRvk-39" value="" style="rounded=0;whiteSpace=wrap;html=1;" vertex="1" parent="8EeJW148Nr816ac2WRvk-37">
          <mxGeometry x="70" y="40" width="40" height="110" as="geometry" />
        </mxCell>
        <mxCell id="8EeJW148Nr816ac2WRvk-40" value="" style="rounded=0;whiteSpace=wrap;html=1;" vertex="1" parent="8EeJW148Nr816ac2WRvk-37">
          <mxGeometry x="60" y="30" width="40" height="110" as="geometry" />
        </mxCell>
        <mxCell id="8EeJW148Nr816ac2WRvk-41" value="latent dim." style="endArrow=classic;html=1;horizontal=0;labelPosition=center;verticalLabelPosition=top;align=center;verticalAlign=bottom;" edge="1" parent="8EeJW148Nr816ac2WRvk-37">
          <mxGeometry x="-550" y="-345" width="50" height="50" as="geometry">
            <mxPoint x="30" y="30" as="sourcePoint" />
            <mxPoint x="30" y="110" as="targetPoint" />
            <mxPoint x="-10" as="offset" />
          </mxGeometry>
        </mxCell>
        <mxCell id="8EeJW148Nr816ac2WRvk-42" value="trials" style="endArrow=classic;html=1;horizontal=1;labelPosition=center;verticalLabelPosition=top;align=center;verticalAlign=bottom;" edge="1" parent="8EeJW148Nr816ac2WRvk-37">
          <mxGeometry x="-590" y="-360" width="50" height="50" as="geometry">
            <mxPoint x="90" y="5" as="sourcePoint" />
            <mxPoint x="120" y="35" as="targetPoint" />
            <mxPoint x="15" as="offset" />
          </mxGeometry>
        </mxCell>
        <mxCell id="8EeJW148Nr816ac2WRvk-43" value="mu" style="rounded=0;whiteSpace=wrap;html=1;spacingTop=2;spacingLeft=2;spacingBottom=2;spacingRight=2;spacing=8;horizontal=0;labelPosition=center;verticalLabelPosition=middle;align=center;verticalAlign=middle;" vertex="1" parent="8EeJW148Nr816ac2WRvk-37">
          <mxGeometry x="50" y="17.5" width="20" height="112.5" as="geometry" />
        </mxCell>
        <mxCell id="8EeJW148Nr816ac2WRvk-44" value="sigma" style="rounded=0;whiteSpace=wrap;html=1;spacingTop=2;spacingLeft=2;spacingBottom=2;spacingRight=2;spacing=8;horizontal=0;verticalAlign=middle;" vertex="1" parent="8EeJW148Nr816ac2WRvk-37">
          <mxGeometry x="70" y="17.5" width="20" height="112.5" as="geometry" />
        </mxCell>
        <mxCell id="8EeJW148Nr816ac2WRvk-45" style="edgeStyle=orthogonalEdgeStyle;rounded=0;orthogonalLoop=1;jettySize=auto;html=1;startSize=3;endSize=3;sourcePerimeterSpacing=5;targetPerimeterSpacing=5;verticalAlign=bottom;" edge="1" parent="1" source="8EeJW148Nr816ac2WRvk-11" target="8EeJW148Nr816ac2WRvk-38">
          <mxGeometry relative="1" as="geometry" />
        </mxCell>
        <mxCell id="8EeJW148Nr816ac2WRvk-50" style="edgeStyle=orthogonalEdgeStyle;rounded=0;orthogonalLoop=1;jettySize=auto;html=1;startSize=3;endSize=3;sourcePerimeterSpacing=5;targetPerimeterSpacing=5;verticalAlign=bottom;" edge="1" parent="1" source="8EeJW148Nr816ac2WRvk-38" target="8EeJW148Nr816ac2WRvk-68">
          <mxGeometry relative="1" as="geometry">
            <mxPoint x="636" y="360" as="targetPoint" />
          </mxGeometry>
        </mxCell>
        <mxCell id="8EeJW148Nr816ac2WRvk-51" style="edgeStyle=orthogonalEdgeStyle;rounded=0;orthogonalLoop=1;jettySize=auto;html=1;startSize=3;endSize=3;sourcePerimeterSpacing=5;targetPerimeterSpacing=5;verticalAlign=bottom;" edge="1" parent="1" source="8EeJW148Nr816ac2WRvk-68" target="8EeJW148Nr816ac2WRvk-54">
          <mxGeometry relative="1" as="geometry">
            <mxPoint x="706" y="360" as="sourcePoint" />
          </mxGeometry>
        </mxCell>
        <mxCell id="8EeJW148Nr816ac2WRvk-53" value="" style="group" vertex="1" connectable="0" parent="1">
          <mxGeometry x="751" y="277" width="130" height="166" as="geometry" />
        </mxCell>
        <mxCell id="8EeJW148Nr816ac2WRvk-54" value="" style="rounded=0;whiteSpace=wrap;html=1;verticalAlign=bottom;strokeColor=none;" vertex="1" parent="8EeJW148Nr816ac2WRvk-53">
          <mxGeometry width="130" height="166" as="geometry" />
        </mxCell>
        <mxCell id="8EeJW148Nr816ac2WRvk-55" value="" style="rounded=0;whiteSpace=wrap;html=1;" vertex="1" parent="8EeJW148Nr816ac2WRvk-53">
          <mxGeometry x="70" y="40" width="20" height="110" as="geometry" />
        </mxCell>
        <mxCell id="8EeJW148Nr816ac2WRvk-56" value="" style="rounded=0;whiteSpace=wrap;html=1;" vertex="1" parent="8EeJW148Nr816ac2WRvk-53">
          <mxGeometry x="60" y="30" width="20" height="110" as="geometry" />
        </mxCell>
        <mxCell id="8EeJW148Nr816ac2WRvk-57" value="latent dynamics" style="endArrow=classic;html=1;horizontal=0;labelPosition=center;verticalLabelPosition=top;align=center;verticalAlign=bottom;" edge="1" parent="8EeJW148Nr816ac2WRvk-53">
          <mxGeometry x="-550" y="-345" width="50" height="50" as="geometry">
            <mxPoint x="30" y="30" as="sourcePoint" />
            <mxPoint x="30" y="110" as="targetPoint" />
            <mxPoint x="-10" as="offset" />
          </mxGeometry>
        </mxCell>
        <mxCell id="8EeJW148Nr816ac2WRvk-58" value="trials" style="endArrow=classic;html=1;horizontal=1;labelPosition=center;verticalLabelPosition=top;align=center;verticalAlign=bottom;" edge="1" parent="8EeJW148Nr816ac2WRvk-53">
          <mxGeometry x="-600" y="-355" width="50" height="50" as="geometry">
            <mxPoint x="80" y="10" as="sourcePoint" />
            <mxPoint x="110" y="40" as="targetPoint" />
            <mxPoint x="15" as="offset" />
          </mxGeometry>
        </mxCell>
        <mxCell id="8EeJW148Nr816ac2WRvk-59" value="&lt;span style=&quot;background-color: rgb(248 , 249 , 250)&quot;&gt;Initial Condition&lt;/span&gt;" style="rounded=0;whiteSpace=wrap;html=1;spacingTop=2;spacingLeft=2;spacingBottom=2;spacingRight=2;spacing=3;horizontal=0;labelPosition=center;verticalLabelPosition=middle;align=center;verticalAlign=middle;" vertex="1" parent="8EeJW148Nr816ac2WRvk-53">
          <mxGeometry x="50" y="17.5" width="20" height="112.5" as="geometry" />
        </mxCell>
        <mxCell id="8EeJW148Nr816ac2WRvk-67" value="" style="group;verticalAlign=bottom;" vertex="1" connectable="0" parent="1">
          <mxGeometry x="641" y="319.5" width="60" height="81" as="geometry" />
        </mxCell>
        <mxCell id="8EeJW148Nr816ac2WRvk-68" value="Sampling" style="rounded=0;whiteSpace=wrap;html=1;verticalAlign=bottom;strokeColor=none;" vertex="1" parent="8EeJW148Nr816ac2WRvk-67">
          <mxGeometry width="60" height="81" as="geometry" />
        </mxCell>
        <mxCell id="8EeJW148Nr816ac2WRvk-69" value="" style="shape=image;verticalLabelPosition=bottom;labelBackgroundColor=#ffffff;verticalAlign=top;aspect=fixed;imageAspect=0;image=data:image/svg+xml,PHN2ZyB4bWxuczpkYz0iaHR0cDovL3B1cmwub3JnL2RjL2VsZW1lbnRzLzEuMS8iIHhtbG5zOmNjPSJodHRwOi8vY3JlYXRpdmVjb21tb25zLm9yZy9ucyMiIHhtbG5zOnJkZj0iaHR0cDovL3d3dy53My5vcmcvMTk5OS8wMi8yMi1yZGYtc3ludGF4LW5zIyIgeG1sbnM6c3ZnPSJodHRwOi8vd3d3LnczLm9yZy8yMDAwL3N2ZyIgeG1sbnM9Imh0dHA6Ly93d3cudzMub3JnLzIwMDAvc3ZnIiB4bWxuczpzb2RpcG9kaT0iaHR0cDovL3NvZGlwb2RpLnNvdXJjZWZvcmdlLm5ldC9EVEQvc29kaXBvZGktMC5kdGQiIHhtbG5zOmlua3NjYXBlPSJodHRwOi8vd3d3Lmlua3NjYXBlLm9yZy9uYW1lc3BhY2VzL2lua3NjYXBlIiB2ZXJzaW9uPSIxLjEiIHg9IjBweCIgeT0iMHB4IiB2aWV3Qm94PSIwLjc5NDk1NzUxODU3NzU3NTcgNi4yNzgyNjY0Mjk5MDExMjMgOTguNjk0MDM4MzkxMTEzMjggMTExLjkxNTg0MDE0ODkyNTc4IiBlbmFibGUtYmFja2dyb3VuZD0ibmV3IDAgMCAxMDAgMTAwIiB4bWw6c3BhY2U9InByZXNlcnZlIiBpZD0ic3ZnMTgiIHNvZGlwb2RpOmRvY25hbWU9Im5vdW5fRGljZV8xMzY5Mzkuc3ZnIiBpbmtzY2FwZTp2ZXJzaW9uPSIxLjAuMSAoYzQ5N2IwM2MsIDIwMjAtMDktMTApIiB3aWR0aD0iOTguNjk0MDM4MzkxMTEzMjgiIGhlaWdodD0iMTExLjkxNTg0MDE0ODkyNTc4Ij48bWV0YWRhdGEgaWQ9Im1ldGFkYXRhMjQiPjxyZGY6cmRmPjxjYzp3b3JrIHJkZjphYm91dD0iIj48ZGM6Zm9ybWF0PmltYWdlL3N2Zyt4bWw8L2RjOmZvcm1hdD48ZGM6dHlwZSByZGY6cmVzb3VyY2U9Imh0dHA6Ly9wdXJsLm9yZy9kYy9kY21pdHlwZS9TdGlsbEltYWdlIi8+PC9jYzp3b3JrPjwvcmRmOnJkZj48L21ldGFkYXRhPjxkZWZzIGlkPSJkZWZzMjIiLz48c29kaXBvZGk6bmFtZWR2aWV3IHBhZ2Vjb2xvcj0iI2ZmZmZmZiIgYm9yZGVyY29sb3I9IiM2NjY2NjYiIGJvcmRlcm9wYWNpdHk9IjEiIG9iamVjdHRvbGVyYW5jZT0iMTAiIGdyaWR0b2xlcmFuY2U9IjEwIiBndWlkZXRvbGVyYW5jZT0iMTAiIGlua3NjYXBlOnBhZ2VvcGFjaXR5PSIwIiBpbmtzY2FwZTpwYWdlc2hhZG93PSIyIiBpbmtzY2FwZTp3aW5kb3ctd2lkdGg9IjE1NTgiIGlua3NjYXBlOndpbmRvdy1oZWlnaHQ9Ijg5NyIgaWQ9Im5hbWVkdmlldzIwIiBzaG93Z3JpZD0iZmFsc2UiIGlua3NjYXBlOnpvb209IjUuNTIxNzQ4MyIgaW5rc2NhcGU6Y3g9IjUwIiBpbmtzY2FwZTpjeT0iODEuMTMxMTg1IiBpbmtzY2FwZTp3aW5kb3cteD0iMCIgaW5rc2NhcGU6d2luZG93LXk9IjI1IiBpbmtzY2FwZTp3aW5kb3ctbWF4aW1pemVkPSIwIiBpbmtzY2FwZTpjdXJyZW50LWxheWVyPSJzdmcxOCIvPjxnIGlkPSJnMTIiIHRyYW5zZm9ybT0ibWF0cml4KDEuNTU0NzI2NiwwLDAsMS41NTQ3MjY2LC0yNy41OTU5MDEsLTE1LjUwMDM0NCkiPjxwYXRoIGZpbGw9IiMwMDAwMDAiIGQ9Im0gNTAuMTIxLDE0LjAwOCBjIC0wLjA2MSwwIC0wLjEyMSwwIC0wLjEyMSwwIC0wLjc3OSwwIC0xLjU2LDAuMjQgLTIuMjc5LDAuNiBsIC0yNy4xOCwxNS43MiB2IDAgYyAtMC4wNjEsMC4wNjEgLTAuMDYxLDAuMDYxIC0wLjA2MSwwLjA2MSAtMC4xOCwwLjEyIC0wLjM1OSwwLjI0IC0wLjU0LDAuMzYgMCwwIC0wLjA2LDAuMDYgLTAuMTIsMC4xMTkgLTAuMTE5LDAuMTIgLTAuMjQsMC4yNCAtMC4zNTksMC4zNiAtMC4wNjEsMC4wNiAtMC4wNjEsMC4wNiAtMC4xMjEsMC4xMiAtMC4xMTksMC4xMiAtMC4yMzksMC4zIC0wLjI5OSwwLjQyIC0wLjA2MSwwLjA2IC0wLjA2MSwwLjEyIC0wLjEyMSwwLjEyIC0wLjQyLDAuNzIgLTAuNjU5LDEuNTYgLTAuNjU5LDIuMzk5IHYgMzEuNDQgYyAwLDEuNjIgMC44NCwzLjEyIDIuMjgsMy45NiBsIDI3LjE4LDE1LjcyMSBjIDEuNDM5LDAuNzc5IDMuMTE5LDAuNzc5IDQuNTU5LDAgTCA3OS40NjIsNjkuNjg3IGMgMS4zNzksLTAuODQgMi4yNzksLTIuMzQgMi4yNzksLTMuOTYgdiAtMzEuNDQgYyAwLC0wLjYgLTAuMTIxLC0xLjE5OSAtMC4zNTksLTEuNzM5IHYgMCAwIC0wLjA2MSBsIC0wLjA2MSwtMC4wNiBjIC0wLjA2MSwtMC4xOCAtMC4xOCwtMC4zNiAtMC4yNCwtMC41NCAtMC4wNjEsMCAtMC4xMTksLTAuMDYxIC0wLjExOSwtMC4xMiAtMC4xMjEsLTAuMTIgLTAuMTgyLC0wLjMgLTAuMzAxLC0wLjQyIC0wLjA2MSwtMC4wNjEgLTAuMTE5LC0wLjEyIC0wLjExOSwtMC4xMiAtMC4xMjEsLTAuMTIgLTAuMjQsLTAuMjQgLTAuMzYxLC0wLjM2IC0wLjA2MSwtMC4wNiAtMC4xMTksLTAuMTE5IC0wLjE4LC0wLjExOSAtMC4xOCwtMC4xODEgLTAuMzU5LC0wLjMwMSAtMC41MzksLTAuNDIxIHYgMCBMIDUyLjI4LDE0LjYwNyB2IDAgYyAtMC4wNTksMCAtMC4wNTksMCAtMC4wNTksMCAtMC42NiwtMC4zNTkgLTEuMzgyLC0wLjU5OSAtMi4xLC0wLjU5OSB6IG0gLTAuMDYxLDEuNjIgYyAwLjEyLDAgMC4yNCwwIDAuMzU5LDAgdiAwIGMgMC4xMjEsMCAwLjI0LDAuMDYgMC4zNjEsMC4wNiB2IDAgYyAwLjIzOSwwLjEyIDAuNDc5LDAuMTggMC42NTksMC4zIGwgMjcuMjQsMTUuNzIxIHYgMCBjIDAuMzAxLDAuMjM5IDAuNDgsMC42IDAuNzIxLDAuODk5IGwgLTI3Ljc4MSwxNi4wOCBjIC0xLjAxOSwwLjU0IC0yLjIxOSwwLjU0IC0zLjIzOSwwIEwgMjAuNTQsMzIuNjA4IGMgMC4yNCwtMC4zIDAuNDIsLTAuNjYgMC43NzksLTAuODk5IGwgOS45NjEsLTUuNzYxIDE3LjI3OSwtOS45NiBjIDAuMDYxLC0wLjA2IDAuMTgsLTAuMTIgMC4zLC0wLjE4IDAuNDIyLC0wLjEyIDAuNzgxLC0wLjE4IDEuMjAxLC0wLjE4IHogTSA1MCwyNy45MjggYyAtMS41LDAgLTIuOTM5LDAuMzU5IC0zLjk1OSwwLjk2IC0xLjA4LDAuNjYgLTEuOTIsMS42MiAtMS45MiwyLjgyIDAsMS4xOTkgMC44NCwyLjIyIDEuOTIsMi44MTkgMS4wMiwwLjY2IDIuNDU5LDEuMDIxIDMuOTU5LDEuMDIxIDEuNSwwIDIuOTQsLTAuMzYgMy45NjEsLTEuMDIxIDEuMDgsLTAuNiAxLjkyLC0xLjYyIDEuOTIsLTIuODE5IDAsLTEuMiAtMC44NCwtMi4xNiAtMS45MiwtMi44MiBDIDUyLjkzOSwyOC4yODcgNTEuNSwyNy45MjggNTAsMjcuOTI4IFogbSAwLDEuNTU5IGMgMS4yNiwwIDIuNDAxLDAuMzYgMy4xOCwwLjc4IDAuNzIxLDAuNDggMS4wOCwxLjAyIDEuMDgsMS40NCAwLDAuNDc5IC0wLjM1OSwxLjAyIC0xLjA4LDEuNSAtMC43NzksMC40MiAtMS45MiwwLjcyIC0zLjE4LDAuNzIgLTEuMjYsMCAtMi4zOTksLTAuMyAtMy4xOCwtMC43MiAtMC43NzksLTAuNDggLTEuMDgsLTEuMDIxIC0xLjA4LC0xLjUgMCwtMC40MjEgMC4zMDEsLTAuOTYgMS4wOCwtMS40NCAwLjc4LC0wLjQxOSAxLjkyLC0wLjc4IDMuMTgsLTAuNzggeiBtIDMwLjExOSw0LjU2MSBjIDAsMC4wNiAwLDAuMTIgMCwwLjIzOSB2IDMxLjQ0IGMgMCwxLjA4IC0wLjUzOSwyLjA0IC0xLjQzOSwyLjU4IGwgLTI3LjI0LDE1LjcyIGMgLTAuMTgsMC4xMiAtMC40MiwwLjE4MSAtMC42NTksMC4yNCB2IC0zMy42NiBjIDAuNiwtMC4wNiAxLjEzOSwtMC4yNCAxLjYyLC0wLjU0IHogbSAtNjAuMjM5LDAgMjcuNzIsMTYuMDIgYyAwLjQ3OSwwLjMgMS4wMjEsMC40OCAxLjYyLDAuNTQgdiAzMy42NiBjIC0wLjI0LC0wLjA2IC0wLjQ4LC0wLjEyIC0wLjY2LC0wLjI0IEwgMjEuMzIsNjguMzA4IGMgLTAuOSwtMC41NCAtMS40MzksLTEuNSAtMS40MzksLTIuNTggViAzNC4yODggQyAxOS44OCwzNC4xNjggMTkuODgsMzQuMTA3IDE5Ljg4LDM0LjA0OCBaIG0gNS42NCw3Ljk3OSBjIC0wLjQ3OSwwIC0wLjg5OSwwLjEyIC0xLjI2LDAuMzYgLTEuMDIxLDAuNTQgLTEuNSwxLjc0IC0xLjUsMyAtMC4wNiwxLjI2IDAuMzYsMi42NCAxLjE0LDMuOTYgMC43MjEsMS4zMiAxLjc0LDIuMzQgMi44MiwyLjk0IDEuMDgsMC42IDIuMzQsMC44NCAzLjM1OSwwLjIzOSAxLjA4LC0wLjYgMS41LC0xLjggMS41NjEsLTMuMDYgMCwtMS4yNiAtMC40MiwtMi42NDEgLTEuMTQxLC0zLjk2IC0wLjc3OSwtMS4zMiAtMS43OTksLTIuMzQgLTIuODc5LC0yLjk0IC0wLjY2LC0wLjM1OCAtMS40NCwtMC41OTggLTIuMSwtMC41MzkgeiBtIDAuMywxLjU2MSBjIDAuMzAxLDAuMDYgMC42NiwwLjE4IDEuMDIsMC4zNTkgMC43ODEsMC40OCAxLjYyMSwxLjI2MSAyLjI4MSwyLjQgMC42LDEuMDggMC44OTksMi4yMiAwLjg5OSwzLjEyIDAsMC44NCAtMC4zLDEuNDQgLTAuNzIsMS42MiAtMC40MiwwLjI0IC0xLjAyLDAuMjQgLTEuODAxLC0wLjE4IC0wLjc3OSwtMC40MjEgLTEuNjE5LC0xLjI2MSAtMi4yMTksLTIuNCAtMC42NiwtMS4wOCAtMC45NjEsLTIuMjIxIC0wLjk2MSwtMy4xMiAwLjA2MSwtMC44NCAwLjMwMSwtMS4zOCAwLjcyMSwtMS42MiAwLjI0MSwtMC4xMiAwLjQ4LC0wLjE3OSAwLjc4LC0wLjE3OSB6IG0gNDcuMSwxLjE5OSBjIC0wLjcyMSwtMC4wNiAtMS41LDAuMTgxIC0yLjE2LDAuNTQgLTEuMDgsMC42MDEgLTIuMSwxLjYyIC0yLjg3OSwyLjk0IC0wLjcyMSwxLjMyIC0xLjE0MSwyLjc2IC0xLjA4LDMuOTYgMCwxLjI2MSAwLjQyLDIuNDYgMS41LDMuMDYxIDEuMDIsMC42IDIuMjc5LDAuMzU5IDMuMzU5LC0wLjI0IDEuMDgsLTAuNTk5IDIuMSwtMS42MiAyLjg4MSwtMi45NCAwLjcxOSwtMS4zMiAxLjEzOSwtMi43IDEuMDc4LC0zLjk2IDAsLTEuMjYgLTAuNDIsLTIuMzk5IC0xLjUsLTMgQyA3My43Niw0NC45MDcgNzMuMzQsNDQuNzg3IDcyLjkyLDQ0Ljc4NyBaIG0gLTAuMzU5LDEuNTYxIGMgMC4yOTksMCAwLjYsMC4wNiAwLjc3OSwwLjE4IDAuNDIsMC4yNCAwLjY2LDAuNzggMC43MjEsMS42ODEgMCwwLjg0IC0wLjMwMSwxLjk3OSAtMC45NjEsMy4xMiAtMC42LDEuMDggLTEuNDM5LDEuOTIgLTIuMjE5LDIuMzQgLTAuNzgxLDAuNDIgLTEuMzgxLDAuNDc5IC0xLjgwMSwwLjI0IC0wLjQyLC0wLjI0IC0wLjcyMSwtMC43OCAtMC43MjEsLTEuNjgxIDAsLTAuODk5IDAuMzAxLC0yLjA0IDAuOSwtMy4xMiAwLjY2LC0xLjE0IDEuNSwtMS45MiAyLjI4MSwtMi4zOTkgMC4zNiwtMC4xODIgMC43MiwtMC4zMDIgMS4wMjEsLTAuMzYxIHogTSAzMi4zLDUzLjc4OCBjIC0wLjQyLDAuMDYgLTAuODQsMC4xOCAtMS4yLDAuMzU5IC0xLjA4LDAuNjAxIC0xLjUsMS44MDEgLTEuNTYsMy4wNjEgMCwxLjI2IDAuNDIsMi42NCAxLjE0LDMuOTYgMC43OCwxLjMyIDEuOCwyLjM0IDIuODgsMi45MzkgMS4wOCwwLjYwMSAyLjM0LDAuNzggMy4zNTksMC4xODEgMS4wMjEsLTAuNjAxIDEuNSwtMS43NCAxLjUsLTMgMC4wNjEsLTEuMjYxIC0wLjM1OSwtMi42NDEgLTEuMTM5LC0zLjk2IC0wLjcyMSwtMS4zMiAtMS43NCwtMi4zNCAtMi44MiwtMi45NCAtMC42NiwtMC4zNjEgLTEuNDQsLTAuNiAtMi4xNiwtMC42IHogbSAwLjM2LDEuNjIgYyAwLjMwMSwwLjA2IDAuNjAxLDAuMTggMS4wMjEsMC4zNTkgMC43OCwwLjQyIDEuNjIsMS4yNiAyLjIyLDIuMzQgMC42NiwxLjE0MSAwLjk2LDIuMjggMC45NiwzLjE4MSAtMC4wNiwwLjg0IC0wLjMsMS4zOCAtMC43MiwxLjYyIC0wLjQyLDAuMjM5IC0xLjAyLDAuMjM5IC0xLjgwMSwtMC4xODEgLTAuNzc5LC0wLjQ3OSAtMS42MTksLTEuMjYgLTIuMjc5LC0yLjM5OSAtMC42LC0xLjA4IC0wLjksLTIuMjIxIC0wLjksLTMuMTIgMCwtMC45IDAuMzAxLC0xLjQ0IDAuNzIxLC0xLjY4MSAwLjE3OCwtMC4wNTkgMC40NzgsLTAuMTE5IDAuNzc4LC0wLjExOSB6IG0gMjkuODIsNy40NCBjIC0wLjcyMSwwIC0xLjUsMC4xOCAtMi4xNiwwLjYwMSAtMS4wOCwwLjYgLTIuMSwxLjYxOSAtMi44ODEsMi45MzkgLTAuNzE5LDEuMzIgLTEuMTM5LDIuNyAtMS4wOCwzLjk2IDAsMS4yIDAuNDIsMi40IDEuNSwzIDEuMDIxLDAuNjAxIDIuMjgxLDAuNDIgMy4zNjEsLTAuMTggMS4wOCwtMC42NiAyLjEsLTEuNjggMi44NzksLTMgMC43MjEsLTEuMzIgMS4xNDEsLTIuNyAxLjA4LC0zLjkgMCwtMS4yNiAtMC40MiwtMi40NiAtMS41LC0zLjA2IC0wLjM1OSwtMC4yNCAtMC43NzksLTAuMzYgLTEuMTk5LC0wLjM2IHogbSAtMC4zNjEsMS42MiBjIDAuMzAxLC0wLjA2IDAuNjAyLDAgMC43ODEsMC4xMiAwLjQyLDAuMjQgMC42NiwwLjc4IDAuNzE5LDEuNjggMCwwLjkgLTAuMjk5LDIuMDQgLTAuOTU5LDMuMTIgLTAuNiwxLjA4IC0xLjQzOSwxLjkyIC0yLjIyMSwyLjM0IC0wLjc3OSwwLjQ4IC0xLjM3OSwwLjQ4IC0xLjc5OSwwLjI0IC0wLjQyLC0wLjI0IC0wLjcyMSwtMC43OCAtMC43MjEsLTEuNjggMCwtMC45IDAuMzAxLC0yLjA0IDAuOSwtMy4xMiAwLjY2LC0xLjA4IDEuNSwtMS45MiAyLjI3OSwtMi4zNCAwLjM2MywtMC4yNCAwLjcyMiwtMC4zNiAxLjAyMSwtMC4zNiB6IE0gMzkuMTQsNjUuNjA3IGMgLTAuNDIsMC4wNjEgLTAuODQsMC4xMiAtMS4yNiwwLjM2IC0xLjAyMSwwLjYgLTEuNSwxLjggLTEuNSwzLjA2IDAsMS4yIDAuMzU5LDIuNjQxIDEuMTQsMy45NjEgMC43OCwxLjMxOSAxLjc0LDIuMzQgMi44OCwyLjkzOSAxLjA4LDAuNiAyLjM0LDAuNzggMy4zNiwwLjE4IDEuMDIxLC0wLjYgMS41LC0xLjczOSAxLjUsLTMgMCwtMS4yNiAtMC4zNiwtMi42NCAtMS4xNCwtMy45NiAtMC43ODEsLTEuMzE5IC0xLjc0LC0yLjM0IC0yLjgyLC0yLjkzOSAtMC43MiwtMC40MiAtMS40NCwtMC42MDEgLTIuMTYsLTAuNjAxIHogbSAwLjMsMS42MjEgYyAwLjMsMC4wNjEgMC42NiwwLjEyIDEuMDIxLDAuMzYgMC43NzksMC40MiAxLjYxOSwxLjI2IDIuMjc5LDIuMzQgMC42NiwxLjE0IDAuOSwyLjI4IDAuOSwzLjEyIDAsMC45IC0wLjMwMSwxLjQ0IC0wLjcyMSwxLjY4IC0wLjM1OSwwLjI0IC0xLjAyLDAuMjQgLTEuNzM5LC0wLjIzOSAtMC43OCwtMC40MjEgLTEuNjIsLTEuMjYxIC0yLjI4LC0yLjM0MSAtMC42NiwtMS4wOCAtMC45LC0yLjIyIC0wLjksLTMuMTIgMCwtMC44OTkgMC4zMDEsLTEuNDM5IDAuNzIxLC0xLjY4IDAuMTc5LC0wLjEyIDAuNDE5LC0wLjE4IDAuNzE5LC0wLjEyIHoiIGlkPSJwYXRoMTAiLz48L2c+PC9zdmc+;" vertex="1" parent="8EeJW148Nr816ac2WRvk-67">
          <mxGeometry x="7.79" y="12" width="42.43" height="48" as="geometry" />
        </mxCell>
        <mxCell id="8EeJW148Nr816ac2WRvk-88" value="" style="group" vertex="1" connectable="0" parent="1">
          <mxGeometry x="941" y="300" width="100" height="120" as="geometry" />
        </mxCell>
        <mxCell id="8EeJW148Nr816ac2WRvk-89" value="Decoder RNN" style="rounded=0;whiteSpace=wrap;html=1;verticalAlign=bottom;strokeColor=none;" vertex="1" parent="8EeJW148Nr816ac2WRvk-88">
          <mxGeometry width="100" height="120" as="geometry" />
        </mxCell>
        <mxCell id="8EeJW148Nr816ac2WRvk-90" value="" style="ellipse;whiteSpace=wrap;html=1;aspect=fixed;" vertex="1" parent="8EeJW148Nr816ac2WRvk-88">
          <mxGeometry x="10" y="40" width="10" height="10" as="geometry" />
        </mxCell>
        <mxCell id="8EeJW148Nr816ac2WRvk-91" style="edgeStyle=orthogonalEdgeStyle;curved=1;rounded=0;orthogonalLoop=1;jettySize=auto;html=1;entryX=0.5;entryY=0;entryDx=0;entryDy=0;startSize=3;endSize=3;verticalAlign=bottom;" edge="1" parent="8EeJW148Nr816ac2WRvk-88" source="8EeJW148Nr816ac2WRvk-92" target="8EeJW148Nr816ac2WRvk-90">
          <mxGeometry x="10" y="10" as="geometry">
            <Array as="points">
              <mxPoint x="15" y="25" />
            </Array>
          </mxGeometry>
        </mxCell>
        <mxCell id="8EeJW148Nr816ac2WRvk-92" value="" style="ellipse;whiteSpace=wrap;html=1;aspect=fixed;" vertex="1" parent="8EeJW148Nr816ac2WRvk-88">
          <mxGeometry x="30" y="20" width="10" height="10" as="geometry" />
        </mxCell>
        <mxCell id="8EeJW148Nr816ac2WRvk-93" style="edgeStyle=orthogonalEdgeStyle;curved=1;rounded=0;orthogonalLoop=1;jettySize=auto;html=1;entryX=1;entryY=0.5;entryDx=0;entryDy=0;startSize=3;endSize=3;verticalAlign=bottom;" edge="1" parent="8EeJW148Nr816ac2WRvk-88" source="8EeJW148Nr816ac2WRvk-94" target="8EeJW148Nr816ac2WRvk-92">
          <mxGeometry x="10" y="10" as="geometry">
            <Array as="points">
              <mxPoint x="45" y="40" />
              <mxPoint x="60" y="40" />
              <mxPoint x="60" y="25" />
            </Array>
          </mxGeometry>
        </mxCell>
        <mxCell id="8EeJW148Nr816ac2WRvk-94" value="" style="ellipse;whiteSpace=wrap;html=1;aspect=fixed;" vertex="1" parent="8EeJW148Nr816ac2WRvk-88">
          <mxGeometry x="40" y="50" width="10" height="10" as="geometry" />
        </mxCell>
        <mxCell id="8EeJW148Nr816ac2WRvk-95" style="edgeStyle=orthogonalEdgeStyle;curved=1;rounded=0;orthogonalLoop=1;jettySize=auto;html=1;entryX=0;entryY=0.5;entryDx=0;entryDy=0;startSize=3;endSize=3;verticalAlign=bottom;" edge="1" parent="8EeJW148Nr816ac2WRvk-88" source="8EeJW148Nr816ac2WRvk-90" target="8EeJW148Nr816ac2WRvk-94">
          <mxGeometry x="10" y="10" as="geometry">
            <Array as="points">
              <mxPoint x="15" y="55" />
            </Array>
          </mxGeometry>
        </mxCell>
        <mxCell id="8EeJW148Nr816ac2WRvk-96" value="" style="ellipse;whiteSpace=wrap;html=1;aspect=fixed;" vertex="1" parent="8EeJW148Nr816ac2WRvk-88">
          <mxGeometry x="30" y="80" width="10" height="10" as="geometry" />
        </mxCell>
        <mxCell id="8EeJW148Nr816ac2WRvk-97" style="edgeStyle=orthogonalEdgeStyle;curved=1;rounded=0;orthogonalLoop=1;jettySize=auto;html=1;entryX=0;entryY=0.5;entryDx=0;entryDy=0;startSize=3;endSize=3;verticalAlign=bottom;" edge="1" parent="8EeJW148Nr816ac2WRvk-88" source="8EeJW148Nr816ac2WRvk-90" target="8EeJW148Nr816ac2WRvk-96">
          <mxGeometry x="10" y="10" as="geometry">
            <Array as="points">
              <mxPoint x="10" y="85" />
            </Array>
          </mxGeometry>
        </mxCell>
        <mxCell id="8EeJW148Nr816ac2WRvk-98" style="edgeStyle=orthogonalEdgeStyle;curved=1;rounded=0;orthogonalLoop=1;jettySize=auto;html=1;entryX=0.5;entryY=0;entryDx=0;entryDy=0;startSize=3;endSize=3;verticalAlign=bottom;" edge="1" parent="8EeJW148Nr816ac2WRvk-88" source="8EeJW148Nr816ac2WRvk-94" target="8EeJW148Nr816ac2WRvk-96">
          <mxGeometry x="10" y="10" as="geometry">
            <Array as="points">
              <mxPoint x="35" y="55" />
            </Array>
          </mxGeometry>
        </mxCell>
        <mxCell id="8EeJW148Nr816ac2WRvk-99" style="edgeStyle=orthogonalEdgeStyle;curved=1;rounded=0;orthogonalLoop=1;jettySize=auto;html=1;entryX=1;entryY=0.5;entryDx=0;entryDy=0;startSize=3;endSize=3;verticalAlign=bottom;" edge="1" parent="8EeJW148Nr816ac2WRvk-88" source="8EeJW148Nr816ac2WRvk-101" target="8EeJW148Nr816ac2WRvk-94">
          <mxGeometry x="10" y="10" as="geometry">
            <Array as="points">
              <mxPoint x="75" y="55" />
            </Array>
          </mxGeometry>
        </mxCell>
        <mxCell id="8EeJW148Nr816ac2WRvk-100" style="edgeStyle=orthogonalEdgeStyle;curved=1;rounded=0;orthogonalLoop=1;jettySize=auto;html=1;entryX=0.5;entryY=0;entryDx=0;entryDy=0;startSize=3;endSize=3;verticalAlign=bottom;" edge="1" parent="8EeJW148Nr816ac2WRvk-88" source="8EeJW148Nr816ac2WRvk-101" target="8EeJW148Nr816ac2WRvk-92">
          <mxGeometry x="10" y="10" as="geometry">
            <Array as="points">
              <mxPoint x="75" y="10" />
              <mxPoint x="45" y="10" />
            </Array>
          </mxGeometry>
        </mxCell>
        <mxCell id="8EeJW148Nr816ac2WRvk-101" value="" style="ellipse;whiteSpace=wrap;html=1;aspect=fixed;" vertex="1" parent="8EeJW148Nr816ac2WRvk-88">
          <mxGeometry x="70" y="40" width="10" height="10" as="geometry" />
        </mxCell>
        <mxCell id="8EeJW148Nr816ac2WRvk-102" style="edgeStyle=orthogonalEdgeStyle;curved=1;rounded=0;orthogonalLoop=1;jettySize=auto;html=1;entryX=1;entryY=0.5;entryDx=0;entryDy=0;startSize=3;endSize=3;verticalAlign=bottom;" edge="1" parent="8EeJW148Nr816ac2WRvk-88" source="8EeJW148Nr816ac2WRvk-103" target="8EeJW148Nr816ac2WRvk-101">
          <mxGeometry x="10" y="10" as="geometry">
            <Array as="points">
              <mxPoint x="75" y="60" />
              <mxPoint x="90" y="60" />
              <mxPoint x="90" y="45" />
            </Array>
          </mxGeometry>
        </mxCell>
        <mxCell id="8EeJW148Nr816ac2WRvk-103" value="" style="ellipse;whiteSpace=wrap;html=1;aspect=fixed;" vertex="1" parent="8EeJW148Nr816ac2WRvk-88">
          <mxGeometry x="70" y="70" width="10" height="10" as="geometry" />
        </mxCell>
        <mxCell id="8EeJW148Nr816ac2WRvk-104" style="edgeStyle=orthogonalEdgeStyle;rounded=0;orthogonalLoop=1;jettySize=auto;html=1;entryX=0;entryY=0.5;entryDx=0;entryDy=0;verticalAlign=bottom;curved=1;startSize=3;endSize=3;" edge="1" parent="8EeJW148Nr816ac2WRvk-88" source="8EeJW148Nr816ac2WRvk-96" target="8EeJW148Nr816ac2WRvk-103">
          <mxGeometry x="10" y="10" as="geometry">
            <Array as="points">
              <mxPoint x="25" y="90" />
              <mxPoint x="50" y="90" />
              <mxPoint x="50" y="75" />
            </Array>
          </mxGeometry>
        </mxCell>
        <mxCell id="8EeJW148Nr816ac2WRvk-105" style="edgeStyle=orthogonalEdgeStyle;rounded=0;orthogonalLoop=1;jettySize=auto;html=1;startSize=3;endSize=3;sourcePerimeterSpacing=5;targetPerimeterSpacing=5;verticalAlign=bottom;" edge="1" parent="1" source="8EeJW148Nr816ac2WRvk-54" target="8EeJW148Nr816ac2WRvk-89">
          <mxGeometry relative="1" as="geometry" />
        </mxCell>
        <mxCell id="8EeJW148Nr816ac2WRvk-119" value="" style="group" vertex="1" connectable="0" parent="1">
          <mxGeometry x="1101" y="275" width="190" height="170" as="geometry" />
        </mxCell>
        <mxCell id="8EeJW148Nr816ac2WRvk-120" value="" style="rounded=0;whiteSpace=wrap;html=1;verticalAlign=bottom;strokeColor=none;" vertex="1" parent="8EeJW148Nr816ac2WRvk-119">
          <mxGeometry width="190" height="170" as="geometry" />
        </mxCell>
        <mxCell id="8EeJW148Nr816ac2WRvk-121" value="" style="rounded=0;whiteSpace=wrap;html=1;" vertex="1" parent="8EeJW148Nr816ac2WRvk-119">
          <mxGeometry x="70" y="50" width="80" height="110" as="geometry" />
        </mxCell>
        <mxCell id="8EeJW148Nr816ac2WRvk-122" value="" style="rounded=0;whiteSpace=wrap;html=1;" vertex="1" parent="8EeJW148Nr816ac2WRvk-119">
          <mxGeometry x="60" y="40" width="80" height="110" as="geometry" />
        </mxCell>
        <mxCell id="8EeJW148Nr816ac2WRvk-123" value="latent dynamics" style="endArrow=classic;html=1;horizontal=0;labelPosition=center;verticalLabelPosition=top;align=center;verticalAlign=bottom;" edge="1" parent="8EeJW148Nr816ac2WRvk-119">
          <mxGeometry x="-550" y="-335" width="50" height="50" as="geometry">
            <mxPoint x="30" y="40" as="sourcePoint" />
            <mxPoint x="30" y="120" as="targetPoint" />
            <mxPoint x="-10" as="offset" />
          </mxGeometry>
        </mxCell>
        <mxCell id="8EeJW148Nr816ac2WRvk-124" value="trials" style="endArrow=classic;html=1;horizontal=1;labelPosition=center;verticalLabelPosition=top;align=center;verticalAlign=bottom;" edge="1" parent="8EeJW148Nr816ac2WRvk-119">
          <mxGeometry x="-540" y="-345" width="50" height="50" as="geometry">
            <mxPoint x="140" y="20" as="sourcePoint" />
            <mxPoint x="170" y="50" as="targetPoint" />
            <mxPoint x="15" as="offset" />
          </mxGeometry>
        </mxCell>
        <mxCell id="8EeJW148Nr816ac2WRvk-125" value="&lt;span style=&quot;background-color: rgb(248 , 249 , 250)&quot;&gt;Dynamics&lt;/span&gt;" style="rounded=0;whiteSpace=wrap;html=1;spacingTop=2;spacingLeft=2;spacingBottom=2;spacingRight=2;spacing=1;horizontal=1;labelPosition=center;verticalLabelPosition=middle;align=center;verticalAlign=middle;" vertex="1" parent="8EeJW148Nr816ac2WRvk-119">
          <mxGeometry x="50" y="27.5" width="80" height="112.5" as="geometry" />
        </mxCell>
        <mxCell id="8EeJW148Nr816ac2WRvk-126" value="time" style="endArrow=classic;html=1;labelPosition=center;verticalLabelPosition=top;align=center;verticalAlign=bottom;" edge="1" parent="8EeJW148Nr816ac2WRvk-119">
          <mxGeometry width="50" height="50" relative="1" as="geometry">
            <mxPoint x="50" y="18" as="sourcePoint" />
            <mxPoint x="100" y="18" as="targetPoint" />
          </mxGeometry>
        </mxCell>
        <mxCell id="8EeJW148Nr816ac2WRvk-127" style="edgeStyle=orthogonalEdgeStyle;rounded=0;orthogonalLoop=1;jettySize=auto;html=1;startSize=3;endSize=3;sourcePerimeterSpacing=5;targetPerimeterSpacing=5;verticalAlign=bottom;" edge="1" parent="1" source="8EeJW148Nr816ac2WRvk-89" target="8EeJW148Nr816ac2WRvk-120">
          <mxGeometry relative="1" as="geometry" />
        </mxCell>
        <mxCell id="8EeJW148Nr816ac2WRvk-137" value="" style="group" vertex="1" connectable="0" parent="1">
          <mxGeometry x="1521" y="305" width="190" height="110" as="geometry" />
        </mxCell>
        <mxCell id="8EeJW148Nr816ac2WRvk-138" value="" style="rounded=0;whiteSpace=wrap;html=1;verticalAlign=bottom;strokeColor=none;" vertex="1" parent="8EeJW148Nr816ac2WRvk-137">
          <mxGeometry width="190" height="110" as="geometry" />
        </mxCell>
        <mxCell id="8EeJW148Nr816ac2WRvk-139" value="" style="rounded=0;whiteSpace=wrap;html=1;" vertex="1" parent="8EeJW148Nr816ac2WRvk-137">
          <mxGeometry x="70" y="50" width="80" height="50" as="geometry" />
        </mxCell>
        <mxCell id="8EeJW148Nr816ac2WRvk-140" value="" style="rounded=0;whiteSpace=wrap;html=1;" vertex="1" parent="8EeJW148Nr816ac2WRvk-137">
          <mxGeometry x="60" y="40" width="80" height="50" as="geometry" />
        </mxCell>
        <mxCell id="8EeJW148Nr816ac2WRvk-141" value="factors" style="endArrow=classic;html=1;horizontal=0;labelPosition=center;verticalLabelPosition=top;align=center;verticalAlign=bottom;" edge="1" parent="8EeJW148Nr816ac2WRvk-137">
          <mxGeometry x="-550" y="-335" width="50" height="50" as="geometry">
            <mxPoint x="30" y="40" as="sourcePoint" />
            <mxPoint x="30" y="80" as="targetPoint" />
            <mxPoint x="-10" as="offset" />
          </mxGeometry>
        </mxCell>
        <mxCell id="8EeJW148Nr816ac2WRvk-142" value="trials" style="endArrow=classic;html=1;horizontal=1;labelPosition=center;verticalLabelPosition=top;align=center;verticalAlign=bottom;" edge="1" parent="8EeJW148Nr816ac2WRvk-137">
          <mxGeometry x="-540" y="-345" width="50" height="50" as="geometry">
            <mxPoint x="140" y="20" as="sourcePoint" />
            <mxPoint x="170" y="50" as="targetPoint" />
            <mxPoint x="15" as="offset" />
          </mxGeometry>
        </mxCell>
        <mxCell id="8EeJW148Nr816ac2WRvk-143" value="&lt;span style=&quot;background-color: rgb(248 , 249 , 250)&quot;&gt;Factors&lt;/span&gt;" style="rounded=0;whiteSpace=wrap;html=1;spacingTop=2;spacingLeft=2;spacingBottom=2;spacingRight=2;spacing=1;horizontal=1;labelPosition=center;verticalLabelPosition=middle;align=center;verticalAlign=middle;" vertex="1" parent="8EeJW148Nr816ac2WRvk-137">
          <mxGeometry x="50" y="27.5" width="80" height="52.5" as="geometry" />
        </mxCell>
        <mxCell id="8EeJW148Nr816ac2WRvk-144" value="time" style="endArrow=classic;html=1;labelPosition=center;verticalLabelPosition=top;align=center;verticalAlign=bottom;" edge="1" parent="8EeJW148Nr816ac2WRvk-137">
          <mxGeometry width="50" height="50" as="geometry">
            <mxPoint x="50" y="18" as="sourcePoint" />
            <mxPoint x="100" y="18" as="targetPoint" />
          </mxGeometry>
        </mxCell>
        <mxCell id="8EeJW148Nr816ac2WRvk-145" value="" style="group" vertex="1" connectable="0" parent="1">
          <mxGeometry x="1361" y="300" width="80" height="120" as="geometry" />
        </mxCell>
        <mxCell id="8EeJW148Nr816ac2WRvk-146" value="Weights W&lt;sub&gt;z&lt;/sub&gt;" style="rounded=0;whiteSpace=wrap;html=1;verticalAlign=bottom;strokeColor=none;" vertex="1" parent="8EeJW148Nr816ac2WRvk-145">
          <mxGeometry width="80" height="120" as="geometry" />
        </mxCell>
        <mxCell id="8EeJW148Nr816ac2WRvk-147" value="" style="endArrow=none;html=1;startSize=1;endSize=1;sourcePerimeterSpacing=4;targetPerimeterSpacing=2;verticalAlign=bottom;endFill=0;" edge="1" parent="8EeJW148Nr816ac2WRvk-145" target="8EeJW148Nr816ac2WRvk-156">
          <mxGeometry width="50" height="50" relative="1" as="geometry">
            <mxPoint x="20" y="90" as="sourcePoint" />
            <mxPoint x="60" y="70" as="targetPoint" />
          </mxGeometry>
        </mxCell>
        <mxCell id="8EeJW148Nr816ac2WRvk-148" value="" style="endArrow=none;html=1;startSize=1;endSize=1;sourcePerimeterSpacing=4;targetPerimeterSpacing=2;verticalAlign=bottom;endFill=0;" edge="1" parent="8EeJW148Nr816ac2WRvk-145" target="8EeJW148Nr816ac2WRvk-156">
          <mxGeometry width="50" height="50" relative="1" as="geometry">
            <mxPoint x="20" y="10" as="sourcePoint" />
            <mxPoint x="60" y="70" as="targetPoint" />
          </mxGeometry>
        </mxCell>
        <mxCell id="8EeJW148Nr816ac2WRvk-149" value="" style="endArrow=none;html=1;startSize=1;endSize=1;sourcePerimeterSpacing=4;targetPerimeterSpacing=2;verticalAlign=bottom;endFill=0;" edge="1" parent="8EeJW148Nr816ac2WRvk-145" target="8EeJW148Nr816ac2WRvk-156">
          <mxGeometry width="50" height="50" relative="1" as="geometry">
            <mxPoint x="20.000000000000227" y="20" as="sourcePoint" />
            <mxPoint x="60" y="70" as="targetPoint" />
          </mxGeometry>
        </mxCell>
        <mxCell id="8EeJW148Nr816ac2WRvk-150" value="" style="endArrow=none;html=1;startSize=1;endSize=1;sourcePerimeterSpacing=4;targetPerimeterSpacing=2;verticalAlign=bottom;endFill=0;" edge="1" parent="8EeJW148Nr816ac2WRvk-145" target="8EeJW148Nr816ac2WRvk-156">
          <mxGeometry width="50" height="50" relative="1" as="geometry">
            <mxPoint x="20" y="30" as="sourcePoint" />
            <mxPoint x="60" y="70" as="targetPoint" />
          </mxGeometry>
        </mxCell>
        <mxCell id="8EeJW148Nr816ac2WRvk-151" value="" style="endArrow=none;html=1;startSize=1;endSize=1;sourcePerimeterSpacing=4;targetPerimeterSpacing=2;verticalAlign=bottom;endFill=0;" edge="1" parent="8EeJW148Nr816ac2WRvk-145" target="8EeJW148Nr816ac2WRvk-156">
          <mxGeometry width="50" height="50" relative="1" as="geometry">
            <mxPoint x="20" y="40" as="sourcePoint" />
            <mxPoint x="60" y="70" as="targetPoint" />
          </mxGeometry>
        </mxCell>
        <mxCell id="8EeJW148Nr816ac2WRvk-152" value="" style="endArrow=none;html=1;startSize=1;endSize=1;sourcePerimeterSpacing=4;targetPerimeterSpacing=2;verticalAlign=bottom;endFill=0;" edge="1" parent="8EeJW148Nr816ac2WRvk-145" target="8EeJW148Nr816ac2WRvk-156">
          <mxGeometry width="50" height="50" relative="1" as="geometry">
            <mxPoint x="20" y="50" as="sourcePoint" />
            <mxPoint x="60" y="70" as="targetPoint" />
          </mxGeometry>
        </mxCell>
        <mxCell id="8EeJW148Nr816ac2WRvk-153" value="" style="endArrow=none;html=1;startSize=1;endSize=1;sourcePerimeterSpacing=4;targetPerimeterSpacing=2;verticalAlign=bottom;endFill=0;" edge="1" parent="8EeJW148Nr816ac2WRvk-145" target="8EeJW148Nr816ac2WRvk-156">
          <mxGeometry width="50" height="50" relative="1" as="geometry">
            <mxPoint x="20" y="60" as="sourcePoint" />
            <mxPoint x="60" y="70" as="targetPoint" />
          </mxGeometry>
        </mxCell>
        <mxCell id="8EeJW148Nr816ac2WRvk-154" value="" style="endArrow=none;html=1;startSize=1;endSize=1;sourcePerimeterSpacing=4;targetPerimeterSpacing=2;verticalAlign=bottom;endFill=0;" edge="1" parent="8EeJW148Nr816ac2WRvk-145" target="8EeJW148Nr816ac2WRvk-156">
          <mxGeometry width="50" height="50" relative="1" as="geometry">
            <mxPoint x="20" y="70" as="sourcePoint" />
            <mxPoint x="60" y="70" as="targetPoint" />
          </mxGeometry>
        </mxCell>
        <mxCell id="8EeJW148Nr816ac2WRvk-155" value="" style="endArrow=none;html=1;startSize=1;endSize=1;sourcePerimeterSpacing=4;targetPerimeterSpacing=2;verticalAlign=bottom;endFill=0;" edge="1" parent="8EeJW148Nr816ac2WRvk-145" target="8EeJW148Nr816ac2WRvk-156">
          <mxGeometry width="50" height="50" relative="1" as="geometry">
            <mxPoint x="20" y="80" as="sourcePoint" />
            <mxPoint x="60" y="70" as="targetPoint" />
          </mxGeometry>
        </mxCell>
        <mxCell id="8EeJW148Nr816ac2WRvk-156" value="" style="ellipse;whiteSpace=wrap;html=1;aspect=fixed;rounded=0;verticalAlign=middle;" vertex="1" parent="8EeJW148Nr816ac2WRvk-145">
          <mxGeometry x="60" y="78" width="2" height="2" as="geometry" />
        </mxCell>
        <mxCell id="8EeJW148Nr816ac2WRvk-157" value="" style="endArrow=none;html=1;startSize=1;endSize=1;sourcePerimeterSpacing=4;targetPerimeterSpacing=2;verticalAlign=bottom;endFill=0;" edge="1" parent="8EeJW148Nr816ac2WRvk-145" target="8EeJW148Nr816ac2WRvk-166">
          <mxGeometry width="50" height="50" relative="1" as="geometry">
            <mxPoint x="20" y="90" as="sourcePoint" />
            <mxPoint x="60" y="70" as="targetPoint" />
          </mxGeometry>
        </mxCell>
        <mxCell id="8EeJW148Nr816ac2WRvk-158" value="" style="endArrow=none;html=1;startSize=1;endSize=1;sourcePerimeterSpacing=4;targetPerimeterSpacing=2;verticalAlign=bottom;endFill=0;" edge="1" parent="8EeJW148Nr816ac2WRvk-145" target="8EeJW148Nr816ac2WRvk-166">
          <mxGeometry width="50" height="50" relative="1" as="geometry">
            <mxPoint x="20" y="10" as="sourcePoint" />
            <mxPoint x="60" y="70" as="targetPoint" />
          </mxGeometry>
        </mxCell>
        <mxCell id="8EeJW148Nr816ac2WRvk-159" value="" style="endArrow=none;html=1;startSize=1;endSize=1;sourcePerimeterSpacing=4;targetPerimeterSpacing=2;verticalAlign=bottom;endFill=0;" edge="1" parent="8EeJW148Nr816ac2WRvk-145" target="8EeJW148Nr816ac2WRvk-166">
          <mxGeometry width="50" height="50" relative="1" as="geometry">
            <mxPoint x="20.000000000000227" y="20" as="sourcePoint" />
            <mxPoint x="60" y="70" as="targetPoint" />
          </mxGeometry>
        </mxCell>
        <mxCell id="8EeJW148Nr816ac2WRvk-160" value="" style="endArrow=none;html=1;startSize=1;endSize=1;sourcePerimeterSpacing=4;targetPerimeterSpacing=2;verticalAlign=bottom;endFill=0;" edge="1" parent="8EeJW148Nr816ac2WRvk-145" target="8EeJW148Nr816ac2WRvk-166">
          <mxGeometry width="50" height="50" relative="1" as="geometry">
            <mxPoint x="20" y="30" as="sourcePoint" />
            <mxPoint x="60" y="70" as="targetPoint" />
          </mxGeometry>
        </mxCell>
        <mxCell id="8EeJW148Nr816ac2WRvk-161" value="" style="endArrow=none;html=1;startSize=1;endSize=1;sourcePerimeterSpacing=4;targetPerimeterSpacing=2;verticalAlign=bottom;endFill=0;" edge="1" parent="8EeJW148Nr816ac2WRvk-145" target="8EeJW148Nr816ac2WRvk-166">
          <mxGeometry width="50" height="50" relative="1" as="geometry">
            <mxPoint x="20" y="40" as="sourcePoint" />
            <mxPoint x="60" y="70" as="targetPoint" />
          </mxGeometry>
        </mxCell>
        <mxCell id="8EeJW148Nr816ac2WRvk-162" value="" style="endArrow=none;html=1;startSize=1;endSize=1;sourcePerimeterSpacing=4;targetPerimeterSpacing=2;verticalAlign=bottom;endFill=0;" edge="1" parent="8EeJW148Nr816ac2WRvk-145" target="8EeJW148Nr816ac2WRvk-166">
          <mxGeometry width="50" height="50" relative="1" as="geometry">
            <mxPoint x="20" y="50" as="sourcePoint" />
            <mxPoint x="60" y="70" as="targetPoint" />
          </mxGeometry>
        </mxCell>
        <mxCell id="8EeJW148Nr816ac2WRvk-163" value="" style="endArrow=none;html=1;startSize=1;endSize=1;sourcePerimeterSpacing=4;targetPerimeterSpacing=2;verticalAlign=bottom;endFill=0;" edge="1" parent="8EeJW148Nr816ac2WRvk-145" target="8EeJW148Nr816ac2WRvk-166">
          <mxGeometry width="50" height="50" relative="1" as="geometry">
            <mxPoint x="20" y="60" as="sourcePoint" />
            <mxPoint x="60" y="70" as="targetPoint" />
          </mxGeometry>
        </mxCell>
        <mxCell id="8EeJW148Nr816ac2WRvk-164" value="" style="endArrow=none;html=1;startSize=1;endSize=1;sourcePerimeterSpacing=4;targetPerimeterSpacing=2;verticalAlign=bottom;endFill=0;" edge="1" parent="8EeJW148Nr816ac2WRvk-145" target="8EeJW148Nr816ac2WRvk-166">
          <mxGeometry width="50" height="50" relative="1" as="geometry">
            <mxPoint x="20" y="70" as="sourcePoint" />
            <mxPoint x="60" y="70" as="targetPoint" />
          </mxGeometry>
        </mxCell>
        <mxCell id="8EeJW148Nr816ac2WRvk-165" value="" style="endArrow=none;html=1;startSize=1;endSize=1;sourcePerimeterSpacing=4;targetPerimeterSpacing=2;verticalAlign=bottom;endFill=0;" edge="1" parent="8EeJW148Nr816ac2WRvk-145" target="8EeJW148Nr816ac2WRvk-166">
          <mxGeometry width="50" height="50" relative="1" as="geometry">
            <mxPoint x="20" y="80" as="sourcePoint" />
            <mxPoint x="60" y="70" as="targetPoint" />
          </mxGeometry>
        </mxCell>
        <mxCell id="8EeJW148Nr816ac2WRvk-166" value="" style="ellipse;whiteSpace=wrap;html=1;aspect=fixed;rounded=0;verticalAlign=middle;" vertex="1" parent="8EeJW148Nr816ac2WRvk-145">
          <mxGeometry x="60" y="49" width="2" height="2" as="geometry" />
        </mxCell>
        <mxCell id="8EeJW148Nr816ac2WRvk-167" value="" style="endArrow=none;html=1;startSize=1;endSize=1;sourcePerimeterSpacing=4;targetPerimeterSpacing=2;verticalAlign=bottom;endFill=0;" edge="1" parent="8EeJW148Nr816ac2WRvk-145" target="8EeJW148Nr816ac2WRvk-176">
          <mxGeometry width="50" height="50" relative="1" as="geometry">
            <mxPoint x="20" y="90" as="sourcePoint" />
            <mxPoint x="60" y="70" as="targetPoint" />
          </mxGeometry>
        </mxCell>
        <mxCell id="8EeJW148Nr816ac2WRvk-168" value="" style="endArrow=none;html=1;startSize=1;endSize=1;sourcePerimeterSpacing=4;targetPerimeterSpacing=2;verticalAlign=bottom;endFill=0;" edge="1" parent="8EeJW148Nr816ac2WRvk-145" target="8EeJW148Nr816ac2WRvk-176">
          <mxGeometry width="50" height="50" relative="1" as="geometry">
            <mxPoint x="20" y="10" as="sourcePoint" />
            <mxPoint x="60" y="70" as="targetPoint" />
          </mxGeometry>
        </mxCell>
        <mxCell id="8EeJW148Nr816ac2WRvk-169" value="" style="endArrow=none;html=1;startSize=1;endSize=1;sourcePerimeterSpacing=4;targetPerimeterSpacing=2;verticalAlign=bottom;endFill=0;" edge="1" parent="8EeJW148Nr816ac2WRvk-145" target="8EeJW148Nr816ac2WRvk-176">
          <mxGeometry width="50" height="50" relative="1" as="geometry">
            <mxPoint x="20.000000000000227" y="20" as="sourcePoint" />
            <mxPoint x="60" y="70" as="targetPoint" />
          </mxGeometry>
        </mxCell>
        <mxCell id="8EeJW148Nr816ac2WRvk-170" value="" style="endArrow=none;html=1;startSize=1;endSize=1;sourcePerimeterSpacing=4;targetPerimeterSpacing=2;verticalAlign=bottom;endFill=0;" edge="1" parent="8EeJW148Nr816ac2WRvk-145" target="8EeJW148Nr816ac2WRvk-176">
          <mxGeometry width="50" height="50" relative="1" as="geometry">
            <mxPoint x="20" y="30" as="sourcePoint" />
            <mxPoint x="60" y="70" as="targetPoint" />
          </mxGeometry>
        </mxCell>
        <mxCell id="8EeJW148Nr816ac2WRvk-171" value="" style="endArrow=none;html=1;startSize=1;endSize=1;sourcePerimeterSpacing=4;targetPerimeterSpacing=2;verticalAlign=bottom;endFill=0;" edge="1" parent="8EeJW148Nr816ac2WRvk-145" target="8EeJW148Nr816ac2WRvk-176">
          <mxGeometry width="50" height="50" relative="1" as="geometry">
            <mxPoint x="20" y="40" as="sourcePoint" />
            <mxPoint x="60" y="70" as="targetPoint" />
          </mxGeometry>
        </mxCell>
        <mxCell id="8EeJW148Nr816ac2WRvk-172" value="" style="endArrow=none;html=1;startSize=1;endSize=1;sourcePerimeterSpacing=4;targetPerimeterSpacing=2;verticalAlign=bottom;endFill=0;" edge="1" parent="8EeJW148Nr816ac2WRvk-145" target="8EeJW148Nr816ac2WRvk-176">
          <mxGeometry width="50" height="50" relative="1" as="geometry">
            <mxPoint x="20" y="50" as="sourcePoint" />
            <mxPoint x="60" y="70" as="targetPoint" />
          </mxGeometry>
        </mxCell>
        <mxCell id="8EeJW148Nr816ac2WRvk-173" value="" style="endArrow=none;html=1;startSize=1;endSize=1;sourcePerimeterSpacing=4;targetPerimeterSpacing=2;verticalAlign=bottom;endFill=0;" edge="1" parent="8EeJW148Nr816ac2WRvk-145" target="8EeJW148Nr816ac2WRvk-176">
          <mxGeometry width="50" height="50" relative="1" as="geometry">
            <mxPoint x="20" y="60" as="sourcePoint" />
            <mxPoint x="60" y="70" as="targetPoint" />
          </mxGeometry>
        </mxCell>
        <mxCell id="8EeJW148Nr816ac2WRvk-174" value="" style="endArrow=none;html=1;startSize=1;endSize=1;sourcePerimeterSpacing=4;targetPerimeterSpacing=2;verticalAlign=bottom;endFill=0;" edge="1" parent="8EeJW148Nr816ac2WRvk-145" target="8EeJW148Nr816ac2WRvk-176">
          <mxGeometry width="50" height="50" relative="1" as="geometry">
            <mxPoint x="20" y="70" as="sourcePoint" />
            <mxPoint x="60" y="70" as="targetPoint" />
          </mxGeometry>
        </mxCell>
        <mxCell id="8EeJW148Nr816ac2WRvk-175" value="" style="endArrow=none;html=1;startSize=1;endSize=1;sourcePerimeterSpacing=4;targetPerimeterSpacing=2;verticalAlign=bottom;endFill=0;" edge="1" parent="8EeJW148Nr816ac2WRvk-145" target="8EeJW148Nr816ac2WRvk-176">
          <mxGeometry width="50" height="50" relative="1" as="geometry">
            <mxPoint x="20" y="80" as="sourcePoint" />
            <mxPoint x="60" y="70" as="targetPoint" />
          </mxGeometry>
        </mxCell>
        <mxCell id="8EeJW148Nr816ac2WRvk-176" value="" style="ellipse;whiteSpace=wrap;html=1;aspect=fixed;rounded=0;verticalAlign=middle;" vertex="1" parent="8EeJW148Nr816ac2WRvk-145">
          <mxGeometry x="60" y="20" width="2" height="2" as="geometry" />
        </mxCell>
        <mxCell id="8EeJW148Nr816ac2WRvk-177" style="edgeStyle=orthogonalEdgeStyle;rounded=0;orthogonalLoop=1;jettySize=auto;html=1;endArrow=classic;startSize=3;endSize=3;sourcePerimeterSpacing=5;targetPerimeterSpacing=5;strokeColor=#000000;verticalAlign=bottom;" edge="1" parent="1" source="8EeJW148Nr816ac2WRvk-120" target="8EeJW148Nr816ac2WRvk-146">
          <mxGeometry relative="1" as="geometry" />
        </mxCell>
        <mxCell id="8EeJW148Nr816ac2WRvk-178" style="edgeStyle=orthogonalEdgeStyle;rounded=0;orthogonalLoop=1;jettySize=auto;html=1;endArrow=classic;endFill=1;startSize=3;endSize=3;sourcePerimeterSpacing=5;targetPerimeterSpacing=5;strokeColor=#000000;verticalAlign=bottom;" edge="1" parent="1" source="8EeJW148Nr816ac2WRvk-146" target="8EeJW148Nr816ac2WRvk-138">
          <mxGeometry relative="1" as="geometry" />
        </mxCell>
        <mxCell id="8EeJW148Nr816ac2WRvk-222" value="" style="group" vertex="1" connectable="0" parent="1">
          <mxGeometry x="1921" y="270" width="170" height="180" as="geometry" />
        </mxCell>
        <mxCell id="8EeJW148Nr816ac2WRvk-223" value="" style="rounded=0;whiteSpace=wrap;html=1;verticalAlign=bottom;strokeColor=none;" vertex="1" parent="8EeJW148Nr816ac2WRvk-222">
          <mxGeometry width="170" height="180" as="geometry" />
        </mxCell>
        <mxCell id="8EeJW148Nr816ac2WRvk-224" value="" style="rounded=0;whiteSpace=wrap;html=1;" vertex="1" parent="8EeJW148Nr816ac2WRvk-222">
          <mxGeometry x="60" y="45" width="80" height="120" as="geometry" />
        </mxCell>
        <mxCell id="8EeJW148Nr816ac2WRvk-225" value="" style="rounded=0;whiteSpace=wrap;html=1;" vertex="1" parent="8EeJW148Nr816ac2WRvk-222">
          <mxGeometry x="50" y="35" width="80" height="120" as="geometry" />
        </mxCell>
        <mxCell id="8EeJW148Nr816ac2WRvk-226" value="Neural Firing Rates" style="rounded=0;whiteSpace=wrap;html=1;spacingTop=2;spacingLeft=2;spacingBottom=2;spacingRight=2;spacing=8;" vertex="1" parent="8EeJW148Nr816ac2WRvk-222">
          <mxGeometry x="40" y="25" width="80" height="120" as="geometry" />
        </mxCell>
        <mxCell id="8EeJW148Nr816ac2WRvk-227" value="time" style="endArrow=classic;html=1;labelPosition=center;verticalLabelPosition=top;align=center;verticalAlign=bottom;" edge="1" parent="8EeJW148Nr816ac2WRvk-222">
          <mxGeometry width="50" height="50" relative="1" as="geometry">
            <mxPoint x="40" y="15" as="sourcePoint" />
            <mxPoint x="90" y="15" as="targetPoint" />
          </mxGeometry>
        </mxCell>
        <mxCell id="8EeJW148Nr816ac2WRvk-228" value="neurons" style="endArrow=classic;html=1;horizontal=0;labelPosition=center;verticalLabelPosition=top;align=center;verticalAlign=bottom;" edge="1" parent="8EeJW148Nr816ac2WRvk-222">
          <mxGeometry y="-10" width="50" height="50" relative="1" as="geometry">
            <mxPoint x="30" y="25" as="sourcePoint" />
            <mxPoint x="30" y="75" as="targetPoint" />
            <mxPoint as="offset" />
          </mxGeometry>
        </mxCell>
        <mxCell id="8EeJW148Nr816ac2WRvk-229" value="trials" style="endArrow=classic;html=1;horizontal=1;labelPosition=center;verticalLabelPosition=top;align=center;verticalAlign=bottom;" edge="1" parent="8EeJW148Nr816ac2WRvk-222">
          <mxGeometry x="0.25" y="7" width="50" height="50" relative="1" as="geometry">
            <mxPoint x="130" y="15" as="sourcePoint" />
            <mxPoint x="160" y="45" as="targetPoint" />
            <mxPoint as="offset" />
          </mxGeometry>
        </mxCell>
        <mxCell id="8EeJW148Nr816ac2WRvk-230" style="edgeStyle=orthogonalEdgeStyle;rounded=0;orthogonalLoop=1;jettySize=auto;html=1;endArrow=classic;endFill=1;startSize=3;endSize=3;sourcePerimeterSpacing=5;targetPerimeterSpacing=5;strokeColor=#000000;verticalAlign=bottom;" edge="1" parent="1" source="8EeJW148Nr816ac2WRvk-138" target="8EeJW148Nr816ac2WRvk-233">
          <mxGeometry relative="1" as="geometry">
            <mxPoint x="1811" y="360" as="targetPoint" />
          </mxGeometry>
        </mxCell>
        <mxCell id="8EeJW148Nr816ac2WRvk-232" value="" style="group" vertex="1" connectable="0" parent="1">
          <mxGeometry x="1781" y="300" width="80" height="120" as="geometry" />
        </mxCell>
        <mxCell id="8EeJW148Nr816ac2WRvk-233" value="Weights W&lt;sub&gt;r&lt;/sub&gt;" style="rounded=0;whiteSpace=wrap;html=1;verticalAlign=bottom;strokeColor=none;" vertex="1" parent="8EeJW148Nr816ac2WRvk-232">
          <mxGeometry width="80" height="120" as="geometry" />
        </mxCell>
        <mxCell id="8EeJW148Nr816ac2WRvk-234" value="" style="endArrow=none;html=1;startSize=1;endSize=1;sourcePerimeterSpacing=4;targetPerimeterSpacing=2;verticalAlign=bottom;endFill=0;" edge="1" parent="8EeJW148Nr816ac2WRvk-232" target="8EeJW148Nr816ac2WRvk-243">
          <mxGeometry width="50" height="50" relative="1" as="geometry">
            <mxPoint x="20" y="90" as="sourcePoint" />
            <mxPoint x="60" y="70" as="targetPoint" />
          </mxGeometry>
        </mxCell>
        <mxCell id="8EeJW148Nr816ac2WRvk-235" value="" style="endArrow=none;html=1;startSize=1;endSize=1;sourcePerimeterSpacing=4;targetPerimeterSpacing=2;verticalAlign=bottom;endFill=0;" edge="1" parent="8EeJW148Nr816ac2WRvk-232" target="8EeJW148Nr816ac2WRvk-243">
          <mxGeometry width="50" height="50" relative="1" as="geometry">
            <mxPoint x="20" y="10" as="sourcePoint" />
            <mxPoint x="60" y="70" as="targetPoint" />
          </mxGeometry>
        </mxCell>
        <mxCell id="8EeJW148Nr816ac2WRvk-236" value="" style="endArrow=none;html=1;startSize=1;endSize=1;sourcePerimeterSpacing=4;targetPerimeterSpacing=2;verticalAlign=bottom;endFill=0;" edge="1" parent="8EeJW148Nr816ac2WRvk-232" target="8EeJW148Nr816ac2WRvk-243">
          <mxGeometry width="50" height="50" relative="1" as="geometry">
            <mxPoint x="20.000000000000227" y="20" as="sourcePoint" />
            <mxPoint x="60" y="70" as="targetPoint" />
          </mxGeometry>
        </mxCell>
        <mxCell id="8EeJW148Nr816ac2WRvk-237" value="" style="endArrow=none;html=1;startSize=1;endSize=1;sourcePerimeterSpacing=4;targetPerimeterSpacing=2;verticalAlign=bottom;endFill=0;" edge="1" parent="8EeJW148Nr816ac2WRvk-232" target="8EeJW148Nr816ac2WRvk-243">
          <mxGeometry width="50" height="50" relative="1" as="geometry">
            <mxPoint x="20" y="30" as="sourcePoint" />
            <mxPoint x="60" y="70" as="targetPoint" />
          </mxGeometry>
        </mxCell>
        <mxCell id="8EeJW148Nr816ac2WRvk-238" value="" style="endArrow=none;html=1;startSize=1;endSize=1;sourcePerimeterSpacing=4;targetPerimeterSpacing=2;verticalAlign=bottom;endFill=0;" edge="1" parent="8EeJW148Nr816ac2WRvk-232" target="8EeJW148Nr816ac2WRvk-243">
          <mxGeometry width="50" height="50" relative="1" as="geometry">
            <mxPoint x="20" y="40" as="sourcePoint" />
            <mxPoint x="60" y="70" as="targetPoint" />
          </mxGeometry>
        </mxCell>
        <mxCell id="8EeJW148Nr816ac2WRvk-239" value="" style="endArrow=none;html=1;startSize=1;endSize=1;sourcePerimeterSpacing=4;targetPerimeterSpacing=2;verticalAlign=bottom;endFill=0;" edge="1" parent="8EeJW148Nr816ac2WRvk-232" target="8EeJW148Nr816ac2WRvk-243">
          <mxGeometry width="50" height="50" relative="1" as="geometry">
            <mxPoint x="20" y="50" as="sourcePoint" />
            <mxPoint x="60" y="70" as="targetPoint" />
          </mxGeometry>
        </mxCell>
        <mxCell id="8EeJW148Nr816ac2WRvk-240" value="" style="endArrow=none;html=1;startSize=1;endSize=1;sourcePerimeterSpacing=4;targetPerimeterSpacing=2;verticalAlign=bottom;endFill=0;" edge="1" parent="8EeJW148Nr816ac2WRvk-232" target="8EeJW148Nr816ac2WRvk-243">
          <mxGeometry width="50" height="50" relative="1" as="geometry">
            <mxPoint x="20" y="60" as="sourcePoint" />
            <mxPoint x="60" y="70" as="targetPoint" />
          </mxGeometry>
        </mxCell>
        <mxCell id="8EeJW148Nr816ac2WRvk-241" value="" style="endArrow=none;html=1;startSize=1;endSize=1;sourcePerimeterSpacing=4;targetPerimeterSpacing=2;verticalAlign=bottom;endFill=0;" edge="1" parent="8EeJW148Nr816ac2WRvk-232" target="8EeJW148Nr816ac2WRvk-243">
          <mxGeometry width="50" height="50" relative="1" as="geometry">
            <mxPoint x="20" y="70" as="sourcePoint" />
            <mxPoint x="60" y="70" as="targetPoint" />
          </mxGeometry>
        </mxCell>
        <mxCell id="8EeJW148Nr816ac2WRvk-242" value="" style="endArrow=none;html=1;startSize=1;endSize=1;sourcePerimeterSpacing=4;targetPerimeterSpacing=2;verticalAlign=bottom;endFill=0;" edge="1" parent="8EeJW148Nr816ac2WRvk-232" target="8EeJW148Nr816ac2WRvk-243">
          <mxGeometry width="50" height="50" relative="1" as="geometry">
            <mxPoint x="20" y="80" as="sourcePoint" />
            <mxPoint x="60" y="70" as="targetPoint" />
          </mxGeometry>
        </mxCell>
        <mxCell id="8EeJW148Nr816ac2WRvk-243" value="" style="ellipse;whiteSpace=wrap;html=1;aspect=fixed;rounded=0;verticalAlign=middle;" vertex="1" parent="8EeJW148Nr816ac2WRvk-232">
          <mxGeometry x="60" y="78" width="2" height="2" as="geometry" />
        </mxCell>
        <mxCell id="8EeJW148Nr816ac2WRvk-244" value="" style="endArrow=none;html=1;startSize=1;endSize=1;sourcePerimeterSpacing=4;targetPerimeterSpacing=2;verticalAlign=bottom;endFill=0;" edge="1" parent="8EeJW148Nr816ac2WRvk-232" target="8EeJW148Nr816ac2WRvk-253">
          <mxGeometry width="50" height="50" relative="1" as="geometry">
            <mxPoint x="20" y="90" as="sourcePoint" />
            <mxPoint x="60" y="70" as="targetPoint" />
          </mxGeometry>
        </mxCell>
        <mxCell id="8EeJW148Nr816ac2WRvk-245" value="" style="endArrow=none;html=1;startSize=1;endSize=1;sourcePerimeterSpacing=4;targetPerimeterSpacing=2;verticalAlign=bottom;endFill=0;" edge="1" parent="8EeJW148Nr816ac2WRvk-232" target="8EeJW148Nr816ac2WRvk-253">
          <mxGeometry width="50" height="50" relative="1" as="geometry">
            <mxPoint x="20" y="10" as="sourcePoint" />
            <mxPoint x="60" y="70" as="targetPoint" />
          </mxGeometry>
        </mxCell>
        <mxCell id="8EeJW148Nr816ac2WRvk-246" value="" style="endArrow=none;html=1;startSize=1;endSize=1;sourcePerimeterSpacing=4;targetPerimeterSpacing=2;verticalAlign=bottom;endFill=0;" edge="1" parent="8EeJW148Nr816ac2WRvk-232" target="8EeJW148Nr816ac2WRvk-253">
          <mxGeometry width="50" height="50" relative="1" as="geometry">
            <mxPoint x="20.000000000000227" y="20" as="sourcePoint" />
            <mxPoint x="60" y="70" as="targetPoint" />
          </mxGeometry>
        </mxCell>
        <mxCell id="8EeJW148Nr816ac2WRvk-247" value="" style="endArrow=none;html=1;startSize=1;endSize=1;sourcePerimeterSpacing=4;targetPerimeterSpacing=2;verticalAlign=bottom;endFill=0;" edge="1" parent="8EeJW148Nr816ac2WRvk-232" target="8EeJW148Nr816ac2WRvk-253">
          <mxGeometry width="50" height="50" relative="1" as="geometry">
            <mxPoint x="20" y="30" as="sourcePoint" />
            <mxPoint x="60" y="70" as="targetPoint" />
          </mxGeometry>
        </mxCell>
        <mxCell id="8EeJW148Nr816ac2WRvk-248" value="" style="endArrow=none;html=1;startSize=1;endSize=1;sourcePerimeterSpacing=4;targetPerimeterSpacing=2;verticalAlign=bottom;endFill=0;" edge="1" parent="8EeJW148Nr816ac2WRvk-232" target="8EeJW148Nr816ac2WRvk-253">
          <mxGeometry width="50" height="50" relative="1" as="geometry">
            <mxPoint x="20" y="40" as="sourcePoint" />
            <mxPoint x="60" y="70" as="targetPoint" />
          </mxGeometry>
        </mxCell>
        <mxCell id="8EeJW148Nr816ac2WRvk-249" value="" style="endArrow=none;html=1;startSize=1;endSize=1;sourcePerimeterSpacing=4;targetPerimeterSpacing=2;verticalAlign=bottom;endFill=0;" edge="1" parent="8EeJW148Nr816ac2WRvk-232" target="8EeJW148Nr816ac2WRvk-253">
          <mxGeometry width="50" height="50" relative="1" as="geometry">
            <mxPoint x="20" y="50" as="sourcePoint" />
            <mxPoint x="60" y="70" as="targetPoint" />
          </mxGeometry>
        </mxCell>
        <mxCell id="8EeJW148Nr816ac2WRvk-250" value="" style="endArrow=none;html=1;startSize=1;endSize=1;sourcePerimeterSpacing=4;targetPerimeterSpacing=2;verticalAlign=bottom;endFill=0;" edge="1" parent="8EeJW148Nr816ac2WRvk-232" target="8EeJW148Nr816ac2WRvk-253">
          <mxGeometry width="50" height="50" relative="1" as="geometry">
            <mxPoint x="20" y="60" as="sourcePoint" />
            <mxPoint x="60" y="70" as="targetPoint" />
          </mxGeometry>
        </mxCell>
        <mxCell id="8EeJW148Nr816ac2WRvk-251" value="" style="endArrow=none;html=1;startSize=1;endSize=1;sourcePerimeterSpacing=4;targetPerimeterSpacing=2;verticalAlign=bottom;endFill=0;" edge="1" parent="8EeJW148Nr816ac2WRvk-232" target="8EeJW148Nr816ac2WRvk-253">
          <mxGeometry width="50" height="50" relative="1" as="geometry">
            <mxPoint x="20" y="70" as="sourcePoint" />
            <mxPoint x="60" y="70" as="targetPoint" />
          </mxGeometry>
        </mxCell>
        <mxCell id="8EeJW148Nr816ac2WRvk-252" value="" style="endArrow=none;html=1;startSize=1;endSize=1;sourcePerimeterSpacing=4;targetPerimeterSpacing=2;verticalAlign=bottom;endFill=0;" edge="1" parent="8EeJW148Nr816ac2WRvk-232" target="8EeJW148Nr816ac2WRvk-253">
          <mxGeometry width="50" height="50" relative="1" as="geometry">
            <mxPoint x="20" y="80" as="sourcePoint" />
            <mxPoint x="60" y="70" as="targetPoint" />
          </mxGeometry>
        </mxCell>
        <mxCell id="8EeJW148Nr816ac2WRvk-253" value="" style="ellipse;whiteSpace=wrap;html=1;aspect=fixed;rounded=0;verticalAlign=middle;" vertex="1" parent="8EeJW148Nr816ac2WRvk-232">
          <mxGeometry x="60" y="49" width="2" height="2" as="geometry" />
        </mxCell>
        <mxCell id="8EeJW148Nr816ac2WRvk-254" value="" style="endArrow=none;html=1;startSize=1;endSize=1;sourcePerimeterSpacing=4;targetPerimeterSpacing=2;verticalAlign=bottom;endFill=0;" edge="1" parent="8EeJW148Nr816ac2WRvk-232" target="8EeJW148Nr816ac2WRvk-263">
          <mxGeometry width="50" height="50" relative="1" as="geometry">
            <mxPoint x="20" y="90" as="sourcePoint" />
            <mxPoint x="60" y="70" as="targetPoint" />
          </mxGeometry>
        </mxCell>
        <mxCell id="8EeJW148Nr816ac2WRvk-255" value="" style="endArrow=none;html=1;startSize=1;endSize=1;sourcePerimeterSpacing=4;targetPerimeterSpacing=2;verticalAlign=bottom;endFill=0;" edge="1" parent="8EeJW148Nr816ac2WRvk-232" target="8EeJW148Nr816ac2WRvk-263">
          <mxGeometry width="50" height="50" relative="1" as="geometry">
            <mxPoint x="20" y="10" as="sourcePoint" />
            <mxPoint x="60" y="70" as="targetPoint" />
          </mxGeometry>
        </mxCell>
        <mxCell id="8EeJW148Nr816ac2WRvk-256" value="" style="endArrow=none;html=1;startSize=1;endSize=1;sourcePerimeterSpacing=4;targetPerimeterSpacing=2;verticalAlign=bottom;endFill=0;" edge="1" parent="8EeJW148Nr816ac2WRvk-232" target="8EeJW148Nr816ac2WRvk-263">
          <mxGeometry width="50" height="50" relative="1" as="geometry">
            <mxPoint x="20.000000000000227" y="20" as="sourcePoint" />
            <mxPoint x="60" y="70" as="targetPoint" />
          </mxGeometry>
        </mxCell>
        <mxCell id="8EeJW148Nr816ac2WRvk-257" value="" style="endArrow=none;html=1;startSize=1;endSize=1;sourcePerimeterSpacing=4;targetPerimeterSpacing=2;verticalAlign=bottom;endFill=0;" edge="1" parent="8EeJW148Nr816ac2WRvk-232" target="8EeJW148Nr816ac2WRvk-263">
          <mxGeometry width="50" height="50" relative="1" as="geometry">
            <mxPoint x="20" y="30" as="sourcePoint" />
            <mxPoint x="60" y="70" as="targetPoint" />
          </mxGeometry>
        </mxCell>
        <mxCell id="8EeJW148Nr816ac2WRvk-258" value="" style="endArrow=none;html=1;startSize=1;endSize=1;sourcePerimeterSpacing=4;targetPerimeterSpacing=2;verticalAlign=bottom;endFill=0;" edge="1" parent="8EeJW148Nr816ac2WRvk-232" target="8EeJW148Nr816ac2WRvk-263">
          <mxGeometry width="50" height="50" relative="1" as="geometry">
            <mxPoint x="20" y="40" as="sourcePoint" />
            <mxPoint x="60" y="70" as="targetPoint" />
          </mxGeometry>
        </mxCell>
        <mxCell id="8EeJW148Nr816ac2WRvk-259" value="" style="endArrow=none;html=1;startSize=1;endSize=1;sourcePerimeterSpacing=4;targetPerimeterSpacing=2;verticalAlign=bottom;endFill=0;" edge="1" parent="8EeJW148Nr816ac2WRvk-232" target="8EeJW148Nr816ac2WRvk-263">
          <mxGeometry width="50" height="50" relative="1" as="geometry">
            <mxPoint x="20" y="50" as="sourcePoint" />
            <mxPoint x="60" y="70" as="targetPoint" />
          </mxGeometry>
        </mxCell>
        <mxCell id="8EeJW148Nr816ac2WRvk-260" value="" style="endArrow=none;html=1;startSize=1;endSize=1;sourcePerimeterSpacing=4;targetPerimeterSpacing=2;verticalAlign=bottom;endFill=0;" edge="1" parent="8EeJW148Nr816ac2WRvk-232" target="8EeJW148Nr816ac2WRvk-263">
          <mxGeometry width="50" height="50" relative="1" as="geometry">
            <mxPoint x="20" y="60" as="sourcePoint" />
            <mxPoint x="60" y="70" as="targetPoint" />
          </mxGeometry>
        </mxCell>
        <mxCell id="8EeJW148Nr816ac2WRvk-261" value="" style="endArrow=none;html=1;startSize=1;endSize=1;sourcePerimeterSpacing=4;targetPerimeterSpacing=2;verticalAlign=bottom;endFill=0;" edge="1" parent="8EeJW148Nr816ac2WRvk-232" target="8EeJW148Nr816ac2WRvk-263">
          <mxGeometry width="50" height="50" relative="1" as="geometry">
            <mxPoint x="20" y="70" as="sourcePoint" />
            <mxPoint x="60" y="70" as="targetPoint" />
          </mxGeometry>
        </mxCell>
        <mxCell id="8EeJW148Nr816ac2WRvk-262" value="" style="endArrow=none;html=1;startSize=1;endSize=1;sourcePerimeterSpacing=4;targetPerimeterSpacing=2;verticalAlign=bottom;endFill=0;" edge="1" parent="8EeJW148Nr816ac2WRvk-232" target="8EeJW148Nr816ac2WRvk-263">
          <mxGeometry width="50" height="50" relative="1" as="geometry">
            <mxPoint x="20" y="80" as="sourcePoint" />
            <mxPoint x="60" y="70" as="targetPoint" />
          </mxGeometry>
        </mxCell>
        <mxCell id="8EeJW148Nr816ac2WRvk-263" value="" style="ellipse;whiteSpace=wrap;html=1;aspect=fixed;rounded=0;verticalAlign=middle;" vertex="1" parent="8EeJW148Nr816ac2WRvk-232">
          <mxGeometry x="60" y="20" width="2" height="2" as="geometry" />
        </mxCell>
        <mxCell id="8EeJW148Nr816ac2WRvk-297" style="edgeStyle=none;rounded=0;orthogonalLoop=1;jettySize=auto;html=1;endArrow=classic;endFill=1;startSize=3;endSize=3;sourcePerimeterSpacing=5;targetPerimeterSpacing=5;strokeColor=#000000;verticalAlign=bottom;" edge="1" parent="1" source="8EeJW148Nr816ac2WRvk-233" target="8EeJW148Nr816ac2WRvk-223">
          <mxGeometry relative="1" as="geometry" />
        </mxCell>
        <mxCell id="8EeJW148Nr816ac2WRvk-298" value="" style="group;verticalAlign=bottom;" vertex="1" connectable="0" parent="1">
          <mxGeometry x="2151" y="310" width="60" height="100" as="geometry" />
        </mxCell>
        <mxCell id="8EeJW148Nr816ac2WRvk-299" value="Poisson Sampling" style="rounded=0;whiteSpace=wrap;html=1;verticalAlign=bottom;strokeColor=none;" vertex="1" parent="8EeJW148Nr816ac2WRvk-298">
          <mxGeometry width="60" height="100" as="geometry" />
        </mxCell>
        <mxCell id="8EeJW148Nr816ac2WRvk-300" value="" style="shape=image;verticalLabelPosition=bottom;labelBackgroundColor=#ffffff;verticalAlign=top;aspect=fixed;imageAspect=0;image=data:image/svg+xml,PHN2ZyB4bWxuczpkYz0iaHR0cDovL3B1cmwub3JnL2RjL2VsZW1lbnRzLzEuMS8iIHhtbG5zOmNjPSJodHRwOi8vY3JlYXRpdmVjb21tb25zLm9yZy9ucyMiIHhtbG5zOnJkZj0iaHR0cDovL3d3dy53My5vcmcvMTk5OS8wMi8yMi1yZGYtc3ludGF4LW5zIyIgeG1sbnM6c3ZnPSJodHRwOi8vd3d3LnczLm9yZy8yMDAwL3N2ZyIgeG1sbnM9Imh0dHA6Ly93d3cudzMub3JnLzIwMDAvc3ZnIiB4bWxuczpzb2RpcG9kaT0iaHR0cDovL3NvZGlwb2RpLnNvdXJjZWZvcmdlLm5ldC9EVEQvc29kaXBvZGktMC5kdGQiIHhtbG5zOmlua3NjYXBlPSJodHRwOi8vd3d3Lmlua3NjYXBlLm9yZy9uYW1lc3BhY2VzL2lua3NjYXBlIiB2ZXJzaW9uPSIxLjEiIHg9IjBweCIgeT0iMHB4IiB2aWV3Qm94PSIwLjc5NDk1NzUxODU3NzU3NTcgNi4yNzgyNjY0Mjk5MDExMjMgOTguNjk0MDM4MzkxMTEzMjggMTExLjkxNTg0MDE0ODkyNTc4IiBlbmFibGUtYmFja2dyb3VuZD0ibmV3IDAgMCAxMDAgMTAwIiB4bWw6c3BhY2U9InByZXNlcnZlIiBpZD0ic3ZnMTgiIHNvZGlwb2RpOmRvY25hbWU9Im5vdW5fRGljZV8xMzY5Mzkuc3ZnIiBpbmtzY2FwZTp2ZXJzaW9uPSIxLjAuMSAoYzQ5N2IwM2MsIDIwMjAtMDktMTApIiB3aWR0aD0iOTguNjk0MDM4MzkxMTEzMjgiIGhlaWdodD0iMTExLjkxNTg0MDE0ODkyNTc4Ij48bWV0YWRhdGEgaWQ9Im1ldGFkYXRhMjQiPjxyZGY6cmRmPjxjYzp3b3JrIHJkZjphYm91dD0iIj48ZGM6Zm9ybWF0PmltYWdlL3N2Zyt4bWw8L2RjOmZvcm1hdD48ZGM6dHlwZSByZGY6cmVzb3VyY2U9Imh0dHA6Ly9wdXJsLm9yZy9kYy9kY21pdHlwZS9TdGlsbEltYWdlIi8+PC9jYzp3b3JrPjwvcmRmOnJkZj48L21ldGFkYXRhPjxkZWZzIGlkPSJkZWZzMjIiLz48c29kaXBvZGk6bmFtZWR2aWV3IHBhZ2Vjb2xvcj0iI2ZmZmZmZiIgYm9yZGVyY29sb3I9IiM2NjY2NjYiIGJvcmRlcm9wYWNpdHk9IjEiIG9iamVjdHRvbGVyYW5jZT0iMTAiIGdyaWR0b2xlcmFuY2U9IjEwIiBndWlkZXRvbGVyYW5jZT0iMTAiIGlua3NjYXBlOnBhZ2VvcGFjaXR5PSIwIiBpbmtzY2FwZTpwYWdlc2hhZG93PSIyIiBpbmtzY2FwZTp3aW5kb3ctd2lkdGg9IjE1NTgiIGlua3NjYXBlOndpbmRvdy1oZWlnaHQ9Ijg5NyIgaWQ9Im5hbWVkdmlldzIwIiBzaG93Z3JpZD0iZmFsc2UiIGlua3NjYXBlOnpvb209IjUuNTIxNzQ4MyIgaW5rc2NhcGU6Y3g9IjUwIiBpbmtzY2FwZTpjeT0iODEuMTMxMTg1IiBpbmtzY2FwZTp3aW5kb3cteD0iMCIgaW5rc2NhcGU6d2luZG93LXk9IjI1IiBpbmtzY2FwZTp3aW5kb3ctbWF4aW1pemVkPSIwIiBpbmtzY2FwZTpjdXJyZW50LWxheWVyPSJzdmcxOCIvPjxnIGlkPSJnMTIiIHRyYW5zZm9ybT0ibWF0cml4KDEuNTU0NzI2NiwwLDAsMS41NTQ3MjY2LC0yNy41OTU5MDEsLTE1LjUwMDM0NCkiPjxwYXRoIGZpbGw9IiMwMDAwMDAiIGQ9Im0gNTAuMTIxLDE0LjAwOCBjIC0wLjA2MSwwIC0wLjEyMSwwIC0wLjEyMSwwIC0wLjc3OSwwIC0xLjU2LDAuMjQgLTIuMjc5LDAuNiBsIC0yNy4xOCwxNS43MiB2IDAgYyAtMC4wNjEsMC4wNjEgLTAuMDYxLDAuMDYxIC0wLjA2MSwwLjA2MSAtMC4xOCwwLjEyIC0wLjM1OSwwLjI0IC0wLjU0LDAuMzYgMCwwIC0wLjA2LDAuMDYgLTAuMTIsMC4xMTkgLTAuMTE5LDAuMTIgLTAuMjQsMC4yNCAtMC4zNTksMC4zNiAtMC4wNjEsMC4wNiAtMC4wNjEsMC4wNiAtMC4xMjEsMC4xMiAtMC4xMTksMC4xMiAtMC4yMzksMC4zIC0wLjI5OSwwLjQyIC0wLjA2MSwwLjA2IC0wLjA2MSwwLjEyIC0wLjEyMSwwLjEyIC0wLjQyLDAuNzIgLTAuNjU5LDEuNTYgLTAuNjU5LDIuMzk5IHYgMzEuNDQgYyAwLDEuNjIgMC44NCwzLjEyIDIuMjgsMy45NiBsIDI3LjE4LDE1LjcyMSBjIDEuNDM5LDAuNzc5IDMuMTE5LDAuNzc5IDQuNTU5LDAgTCA3OS40NjIsNjkuNjg3IGMgMS4zNzksLTAuODQgMi4yNzksLTIuMzQgMi4yNzksLTMuOTYgdiAtMzEuNDQgYyAwLC0wLjYgLTAuMTIxLC0xLjE5OSAtMC4zNTksLTEuNzM5IHYgMCAwIC0wLjA2MSBsIC0wLjA2MSwtMC4wNiBjIC0wLjA2MSwtMC4xOCAtMC4xOCwtMC4zNiAtMC4yNCwtMC41NCAtMC4wNjEsMCAtMC4xMTksLTAuMDYxIC0wLjExOSwtMC4xMiAtMC4xMjEsLTAuMTIgLTAuMTgyLC0wLjMgLTAuMzAxLC0wLjQyIC0wLjA2MSwtMC4wNjEgLTAuMTE5LC0wLjEyIC0wLjExOSwtMC4xMiAtMC4xMjEsLTAuMTIgLTAuMjQsLTAuMjQgLTAuMzYxLC0wLjM2IC0wLjA2MSwtMC4wNiAtMC4xMTksLTAuMTE5IC0wLjE4LC0wLjExOSAtMC4xOCwtMC4xODEgLTAuMzU5LC0wLjMwMSAtMC41MzksLTAuNDIxIHYgMCBMIDUyLjI4LDE0LjYwNyB2IDAgYyAtMC4wNTksMCAtMC4wNTksMCAtMC4wNTksMCAtMC42NiwtMC4zNTkgLTEuMzgyLC0wLjU5OSAtMi4xLC0wLjU5OSB6IG0gLTAuMDYxLDEuNjIgYyAwLjEyLDAgMC4yNCwwIDAuMzU5LDAgdiAwIGMgMC4xMjEsMCAwLjI0LDAuMDYgMC4zNjEsMC4wNiB2IDAgYyAwLjIzOSwwLjEyIDAuNDc5LDAuMTggMC42NTksMC4zIGwgMjcuMjQsMTUuNzIxIHYgMCBjIDAuMzAxLDAuMjM5IDAuNDgsMC42IDAuNzIxLDAuODk5IGwgLTI3Ljc4MSwxNi4wOCBjIC0xLjAxOSwwLjU0IC0yLjIxOSwwLjU0IC0zLjIzOSwwIEwgMjAuNTQsMzIuNjA4IGMgMC4yNCwtMC4zIDAuNDIsLTAuNjYgMC43NzksLTAuODk5IGwgOS45NjEsLTUuNzYxIDE3LjI3OSwtOS45NiBjIDAuMDYxLC0wLjA2IDAuMTgsLTAuMTIgMC4zLC0wLjE4IDAuNDIyLC0wLjEyIDAuNzgxLC0wLjE4IDEuMjAxLC0wLjE4IHogTSA1MCwyNy45MjggYyAtMS41LDAgLTIuOTM5LDAuMzU5IC0zLjk1OSwwLjk2IC0xLjA4LDAuNjYgLTEuOTIsMS42MiAtMS45MiwyLjgyIDAsMS4xOTkgMC44NCwyLjIyIDEuOTIsMi44MTkgMS4wMiwwLjY2IDIuNDU5LDEuMDIxIDMuOTU5LDEuMDIxIDEuNSwwIDIuOTQsLTAuMzYgMy45NjEsLTEuMDIxIDEuMDgsLTAuNiAxLjkyLC0xLjYyIDEuOTIsLTIuODE5IDAsLTEuMiAtMC44NCwtMi4xNiAtMS45MiwtMi44MiBDIDUyLjkzOSwyOC4yODcgNTEuNSwyNy45MjggNTAsMjcuOTI4IFogbSAwLDEuNTU5IGMgMS4yNiwwIDIuNDAxLDAuMzYgMy4xOCwwLjc4IDAuNzIxLDAuNDggMS4wOCwxLjAyIDEuMDgsMS40NCAwLDAuNDc5IC0wLjM1OSwxLjAyIC0xLjA4LDEuNSAtMC43NzksMC40MiAtMS45MiwwLjcyIC0zLjE4LDAuNzIgLTEuMjYsMCAtMi4zOTksLTAuMyAtMy4xOCwtMC43MiAtMC43NzksLTAuNDggLTEuMDgsLTEuMDIxIC0xLjA4LC0xLjUgMCwtMC40MjEgMC4zMDEsLTAuOTYgMS4wOCwtMS40NCAwLjc4LC0wLjQxOSAxLjkyLC0wLjc4IDMuMTgsLTAuNzggeiBtIDMwLjExOSw0LjU2MSBjIDAsMC4wNiAwLDAuMTIgMCwwLjIzOSB2IDMxLjQ0IGMgMCwxLjA4IC0wLjUzOSwyLjA0IC0xLjQzOSwyLjU4IGwgLTI3LjI0LDE1LjcyIGMgLTAuMTgsMC4xMiAtMC40MiwwLjE4MSAtMC42NTksMC4yNCB2IC0zMy42NiBjIDAuNiwtMC4wNiAxLjEzOSwtMC4yNCAxLjYyLC0wLjU0IHogbSAtNjAuMjM5LDAgMjcuNzIsMTYuMDIgYyAwLjQ3OSwwLjMgMS4wMjEsMC40OCAxLjYyLDAuNTQgdiAzMy42NiBjIC0wLjI0LC0wLjA2IC0wLjQ4LC0wLjEyIC0wLjY2LC0wLjI0IEwgMjEuMzIsNjguMzA4IGMgLTAuOSwtMC41NCAtMS40MzksLTEuNSAtMS40MzksLTIuNTggViAzNC4yODggQyAxOS44OCwzNC4xNjggMTkuODgsMzQuMTA3IDE5Ljg4LDM0LjA0OCBaIG0gNS42NCw3Ljk3OSBjIC0wLjQ3OSwwIC0wLjg5OSwwLjEyIC0xLjI2LDAuMzYgLTEuMDIxLDAuNTQgLTEuNSwxLjc0IC0xLjUsMyAtMC4wNiwxLjI2IDAuMzYsMi42NCAxLjE0LDMuOTYgMC43MjEsMS4zMiAxLjc0LDIuMzQgMi44MiwyLjk0IDEuMDgsMC42IDIuMzQsMC44NCAzLjM1OSwwLjIzOSAxLjA4LC0wLjYgMS41LC0xLjggMS41NjEsLTMuMDYgMCwtMS4yNiAtMC40MiwtMi42NDEgLTEuMTQxLC0zLjk2IC0wLjc3OSwtMS4zMiAtMS43OTksLTIuMzQgLTIuODc5LC0yLjk0IC0wLjY2LC0wLjM1OCAtMS40NCwtMC41OTggLTIuMSwtMC41MzkgeiBtIDAuMywxLjU2MSBjIDAuMzAxLDAuMDYgMC42NiwwLjE4IDEuMDIsMC4zNTkgMC43ODEsMC40OCAxLjYyMSwxLjI2MSAyLjI4MSwyLjQgMC42LDEuMDggMC44OTksMi4yMiAwLjg5OSwzLjEyIDAsMC44NCAtMC4zLDEuNDQgLTAuNzIsMS42MiAtMC40MiwwLjI0IC0xLjAyLDAuMjQgLTEuODAxLC0wLjE4IC0wLjc3OSwtMC40MjEgLTEuNjE5LC0xLjI2MSAtMi4yMTksLTIuNCAtMC42NiwtMS4wOCAtMC45NjEsLTIuMjIxIC0wLjk2MSwtMy4xMiAwLjA2MSwtMC44NCAwLjMwMSwtMS4zOCAwLjcyMSwtMS42MiAwLjI0MSwtMC4xMiAwLjQ4LC0wLjE3OSAwLjc4LC0wLjE3OSB6IG0gNDcuMSwxLjE5OSBjIC0wLjcyMSwtMC4wNiAtMS41LDAuMTgxIC0yLjE2LDAuNTQgLTEuMDgsMC42MDEgLTIuMSwxLjYyIC0yLjg3OSwyLjk0IC0wLjcyMSwxLjMyIC0xLjE0MSwyLjc2IC0xLjA4LDMuOTYgMCwxLjI2MSAwLjQyLDIuNDYgMS41LDMuMDYxIDEuMDIsMC42IDIuMjc5LDAuMzU5IDMuMzU5LC0wLjI0IDEuMDgsLTAuNTk5IDIuMSwtMS42MiAyLjg4MSwtMi45NCAwLjcxOSwtMS4zMiAxLjEzOSwtMi43IDEuMDc4LC0zLjk2IDAsLTEuMjYgLTAuNDIsLTIuMzk5IC0xLjUsLTMgQyA3My43Niw0NC45MDcgNzMuMzQsNDQuNzg3IDcyLjkyLDQ0Ljc4NyBaIG0gLTAuMzU5LDEuNTYxIGMgMC4yOTksMCAwLjYsMC4wNiAwLjc3OSwwLjE4IDAuNDIsMC4yNCAwLjY2LDAuNzggMC43MjEsMS42ODEgMCwwLjg0IC0wLjMwMSwxLjk3OSAtMC45NjEsMy4xMiAtMC42LDEuMDggLTEuNDM5LDEuOTIgLTIuMjE5LDIuMzQgLTAuNzgxLDAuNDIgLTEuMzgxLDAuNDc5IC0xLjgwMSwwLjI0IC0wLjQyLC0wLjI0IC0wLjcyMSwtMC43OCAtMC43MjEsLTEuNjgxIDAsLTAuODk5IDAuMzAxLC0yLjA0IDAuOSwtMy4xMiAwLjY2LC0xLjE0IDEuNSwtMS45MiAyLjI4MSwtMi4zOTkgMC4zNiwtMC4xODIgMC43MiwtMC4zMDIgMS4wMjEsLTAuMzYxIHogTSAzMi4zLDUzLjc4OCBjIC0wLjQyLDAuMDYgLTAuODQsMC4xOCAtMS4yLDAuMzU5IC0xLjA4LDAuNjAxIC0xLjUsMS44MDEgLTEuNTYsMy4wNjEgMCwxLjI2IDAuNDIsMi42NCAxLjE0LDMuOTYgMC43OCwxLjMyIDEuOCwyLjM0IDIuODgsMi45MzkgMS4wOCwwLjYwMSAyLjM0LDAuNzggMy4zNTksMC4xODEgMS4wMjEsLTAuNjAxIDEuNSwtMS43NCAxLjUsLTMgMC4wNjEsLTEuMjYxIC0wLjM1OSwtMi42NDEgLTEuMTM5LC0zLjk2IC0wLjcyMSwtMS4zMiAtMS43NCwtMi4zNCAtMi44MiwtMi45NCAtMC42NiwtMC4zNjEgLTEuNDQsLTAuNiAtMi4xNiwtMC42IHogbSAwLjM2LDEuNjIgYyAwLjMwMSwwLjA2IDAuNjAxLDAuMTggMS4wMjEsMC4zNTkgMC43OCwwLjQyIDEuNjIsMS4yNiAyLjIyLDIuMzQgMC42NiwxLjE0MSAwLjk2LDIuMjggMC45NiwzLjE4MSAtMC4wNiwwLjg0IC0wLjMsMS4zOCAtMC43MiwxLjYyIC0wLjQyLDAuMjM5IC0xLjAyLDAuMjM5IC0xLjgwMSwtMC4xODEgLTAuNzc5LC0wLjQ3OSAtMS42MTksLTEuMjYgLTIuMjc5LC0yLjM5OSAtMC42LC0xLjA4IC0wLjksLTIuMjIxIC0wLjksLTMuMTIgMCwtMC45IDAuMzAxLC0xLjQ0IDAuNzIxLC0xLjY4MSAwLjE3OCwtMC4wNTkgMC40NzgsLTAuMTE5IDAuNzc4LC0wLjExOSB6IG0gMjkuODIsNy40NCBjIC0wLjcyMSwwIC0xLjUsMC4xOCAtMi4xNiwwLjYwMSAtMS4wOCwwLjYgLTIuMSwxLjYxOSAtMi44ODEsMi45MzkgLTAuNzE5LDEuMzIgLTEuMTM5LDIuNyAtMS4wOCwzLjk2IDAsMS4yIDAuNDIsMi40IDEuNSwzIDEuMDIxLDAuNjAxIDIuMjgxLDAuNDIgMy4zNjEsLTAuMTggMS4wOCwtMC42NiAyLjEsLTEuNjggMi44NzksLTMgMC43MjEsLTEuMzIgMS4xNDEsLTIuNyAxLjA4LC0zLjkgMCwtMS4yNiAtMC40MiwtMi40NiAtMS41LC0zLjA2IC0wLjM1OSwtMC4yNCAtMC43NzksLTAuMzYgLTEuMTk5LC0wLjM2IHogbSAtMC4zNjEsMS42MiBjIDAuMzAxLC0wLjA2IDAuNjAyLDAgMC43ODEsMC4xMiAwLjQyLDAuMjQgMC42NiwwLjc4IDAuNzE5LDEuNjggMCwwLjkgLTAuMjk5LDIuMDQgLTAuOTU5LDMuMTIgLTAuNiwxLjA4IC0xLjQzOSwxLjkyIC0yLjIyMSwyLjM0IC0wLjc3OSwwLjQ4IC0xLjM3OSwwLjQ4IC0xLjc5OSwwLjI0IC0wLjQyLC0wLjI0IC0wLjcyMSwtMC43OCAtMC43MjEsLTEuNjggMCwtMC45IDAuMzAxLC0yLjA0IDAuOSwtMy4xMiAwLjY2LC0xLjA4IDEuNSwtMS45MiAyLjI3OSwtMi4zNCAwLjM2MywtMC4yNCAwLjcyMiwtMC4zNiAxLjAyMSwtMC4zNiB6IE0gMzkuMTQsNjUuNjA3IGMgLTAuNDIsMC4wNjEgLTAuODQsMC4xMiAtMS4yNiwwLjM2IC0xLjAyMSwwLjYgLTEuNSwxLjggLTEuNSwzLjA2IDAsMS4yIDAuMzU5LDIuNjQxIDEuMTQsMy45NjEgMC43OCwxLjMxOSAxLjc0LDIuMzQgMi44OCwyLjkzOSAxLjA4LDAuNiAyLjM0LDAuNzggMy4zNiwwLjE4IDEuMDIxLC0wLjYgMS41LC0xLjczOSAxLjUsLTMgMCwtMS4yNiAtMC4zNiwtMi42NCAtMS4xNCwtMy45NiAtMC43ODEsLTEuMzE5IC0xLjc0LC0yLjM0IC0yLjgyLC0yLjkzOSAtMC43MiwtMC40MiAtMS40NCwtMC42MDEgLTIuMTYsLTAuNjAxIHogbSAwLjMsMS42MjEgYyAwLjMsMC4wNjEgMC42NiwwLjEyIDEuMDIxLDAuMzYgMC43NzksMC40MiAxLjYxOSwxLjI2IDIuMjc5LDIuMzQgMC42NiwxLjE0IDAuOSwyLjI4IDAuOSwzLjEyIDAsMC45IC0wLjMwMSwxLjQ0IC0wLjcyMSwxLjY4IC0wLjM1OSwwLjI0IC0xLjAyLDAuMjQgLTEuNzM5LC0wLjIzOSAtMC43OCwtMC40MjEgLTEuNjIsLTEuMjYxIC0yLjI4LC0yLjM0MSAtMC42NiwtMS4wOCAtMC45LC0yLjIyIC0wLjksLTMuMTIgMCwtMC44OTkgMC4zMDEsLTEuNDM5IDAuNzIxLC0xLjY4IDAuMTc5LC0wLjEyIDAuNDE5LC0wLjE4IDAuNzE5LC0wLjEyIHoiIGlkPSJwYXRoMTAiLz48L2c+PC9zdmc+;" vertex="1" parent="8EeJW148Nr816ac2WRvk-298">
          <mxGeometry x="7.79" y="14.814814814814817" width="42.43" height="48" as="geometry" />
        </mxCell>
        <mxCell id="8EeJW148Nr816ac2WRvk-301" style="edgeStyle=none;rounded=0;orthogonalLoop=1;jettySize=auto;html=1;endArrow=classic;endFill=1;startSize=3;endSize=3;sourcePerimeterSpacing=5;targetPerimeterSpacing=5;strokeColor=#000000;verticalAlign=bottom;" edge="1" parent="1" source="8EeJW148Nr816ac2WRvk-223" target="8EeJW148Nr816ac2WRvk-299">
          <mxGeometry relative="1" as="geometry" />
        </mxCell>
        <mxCell id="8EeJW148Nr816ac2WRvk-302" value="" style="group" vertex="1" connectable="0" parent="1">
          <mxGeometry x="2271" y="270" width="170" height="180" as="geometry" />
        </mxCell>
        <mxCell id="8EeJW148Nr816ac2WRvk-303" value="" style="rounded=0;whiteSpace=wrap;html=1;verticalAlign=bottom;strokeColor=none;" vertex="1" parent="8EeJW148Nr816ac2WRvk-302">
          <mxGeometry width="170" height="180" as="geometry" />
        </mxCell>
        <mxCell id="8EeJW148Nr816ac2WRvk-304" value="" style="rounded=0;whiteSpace=wrap;html=1;" vertex="1" parent="8EeJW148Nr816ac2WRvk-302">
          <mxGeometry x="60" y="45" width="80" height="120" as="geometry" />
        </mxCell>
        <mxCell id="8EeJW148Nr816ac2WRvk-305" value="" style="rounded=0;whiteSpace=wrap;html=1;" vertex="1" parent="8EeJW148Nr816ac2WRvk-302">
          <mxGeometry x="50" y="35" width="80" height="120" as="geometry" />
        </mxCell>
        <mxCell id="8EeJW148Nr816ac2WRvk-306" value="&lt;font style=&quot;font-size: 12px&quot;&gt;Recovered Neural&lt;br&gt;Activity&lt;br&gt;&lt;/font&gt;&lt;br&gt;&lt;font style=&quot;font-size: 10px&quot;&gt;spikes encoded as binary events&lt;/font&gt;" style="rounded=0;whiteSpace=wrap;html=1;spacingTop=2;spacingLeft=2;spacingBottom=2;spacingRight=2;spacing=8;" vertex="1" parent="8EeJW148Nr816ac2WRvk-302">
          <mxGeometry x="40" y="25" width="80" height="120" as="geometry" />
        </mxCell>
        <mxCell id="8EeJW148Nr816ac2WRvk-307" value="time" style="endArrow=classic;html=1;labelPosition=center;verticalLabelPosition=top;align=center;verticalAlign=bottom;" edge="1" parent="8EeJW148Nr816ac2WRvk-302">
          <mxGeometry width="50" height="50" relative="1" as="geometry">
            <mxPoint x="40" y="15" as="sourcePoint" />
            <mxPoint x="90" y="15" as="targetPoint" />
          </mxGeometry>
        </mxCell>
        <mxCell id="8EeJW148Nr816ac2WRvk-308" value="neurons" style="endArrow=classic;html=1;horizontal=0;labelPosition=center;verticalLabelPosition=top;align=center;verticalAlign=bottom;" edge="1" parent="8EeJW148Nr816ac2WRvk-302">
          <mxGeometry y="-10" width="50" height="50" relative="1" as="geometry">
            <mxPoint x="30" y="25" as="sourcePoint" />
            <mxPoint x="30" y="75" as="targetPoint" />
            <mxPoint as="offset" />
          </mxGeometry>
        </mxCell>
        <mxCell id="8EeJW148Nr816ac2WRvk-309" value="trials" style="endArrow=classic;html=1;horizontal=1;labelPosition=center;verticalLabelPosition=top;align=center;verticalAlign=bottom;" edge="1" parent="8EeJW148Nr816ac2WRvk-302">
          <mxGeometry x="0.25" y="7" width="50" height="50" relative="1" as="geometry">
            <mxPoint x="130" y="15" as="sourcePoint" />
            <mxPoint x="160" y="45" as="targetPoint" />
            <mxPoint as="offset" />
          </mxGeometry>
        </mxCell>
        <mxCell id="8EeJW148Nr816ac2WRvk-310" style="edgeStyle=none;rounded=0;orthogonalLoop=1;jettySize=auto;html=1;endArrow=classic;endFill=1;startSize=3;endSize=3;sourcePerimeterSpacing=5;targetPerimeterSpacing=5;strokeColor=#000000;verticalAlign=bottom;" edge="1" parent="1" source="8EeJW148Nr816ac2WRvk-299" target="8EeJW148Nr816ac2WRvk-303">
          <mxGeometry relative="1" as="geometry" />
        </mxCell>
      </root>
    </mxGraphModel>
  </diagram>
</mxfile>
